<?xml version="1.0" encoding="UTF-8"?>
<svg version="1.1" viewBox="0 0 2247.2 1097.6" xmlns="http://www.w3.org/2000/svg">
 <g transform="translate(1015 39.271)">
  <g transform="matrix(.71503 0 0 .71503 6134 -894.51)">
   <g transform="translate(63.405 -12.681)">
    <path d="m-8498.4 2622.6c-0.5962-0.5962-1.084-2.2895-1.084-3.7628 0-2.7005 1.4173-3.5435 21.28-12.656 16.338-7.4958 13.844-9.7131-9.2021-8.1796-23.794 1.5833-33.638-0.4871-34.639-7.2841-0.5585-3.7966 1.1243-5.3603 8.0519-7.4823 21.139-6.4746 32.914-14.467 32.914-22.342 0-3.8192 3.2088-8.9781 9.2021-14.794 8.1103-7.8706 12.327-18.109 7.4768-18.153-0.949-0.01-3.9307-3.3733-6.6258-7.4768-4.0689-6.195-5.3577-13.511-7.5956-43.119-1.4824-19.612-3.6896-42.666-4.905-51.233-1.2153-8.566-3.189-27.201-4.386-41.41-2.7958-33.187-9.3033-96.866-9.935-97.216-29.987-16.543-30.45-17.544-25.745-55.723 1.9886-16.133 5.975-43.052 8.8587-59.821 4.8702-28.32 4.9724-30.735 1.4366-33.935-3.2451-2.9368-3.4666-5.3197-1.5018-16.16 2.78-15.337 0.7564-18.315-11.939-17.566-5.6876 0.3356-9.9187-0.7408-11.794-3.0003-4.1918-5.0509-6.7534-4.3727-9.3576 2.4776-1.9707 5.1833-2.7841 5.5846-5.9672 2.9429-2.9421-2.4418-3.4609-6.1963-2.5722-18.617l1.1132-15.559-7.7419-2.7995c-4.2581-1.5398-7.742-4.0987-7.742-5.6862 0-2.2471 2.0735-2.1551 9.3586 0.4153 8.6764 3.0613 9.8147 2.9647 15.616-1.3245 6.0184-4.4497 6.703-4.4823 17.919-0.8601 7.4938 2.4202 15.499 7.4963 22.399 14.203 5.9052 5.7401 11.085 10.03 11.51 9.5339 5.3175-6.2069 32.868-67.212 36.162-80.072 2.4023-9.3806 6.9548-21.47 10.117-26.866 6.5885-11.242 7.1526-14.742 2.3762-14.742-14.502 0-32.012-21.088-38.4-46.248-3.6661-14.436-3.7147-17.186-0.5697-32.27 4.3388-20.809 5.9853-23.781 17.037-30.758 13.852-8.7443 25.462-10.594 36.049-5.7424 12.408 5.6865 18.596 12.345 21.501 23.134 1.3804 5.1265 4.5249 11.046 6.9876 13.155 5.1189 4.383 5.8783 15.918 2.0488 31.126-3.2833 13.04 1.1224 26.808 9.9289 31.03 3.4922 1.6738 8.4337 7.1292 10.982 12.123 2.5476 4.994 6.7666 10.368 9.3752 11.941 6.2539 3.7731 14.644 20.564 17.868 35.757 4.0096 18.897 3.1059 49.682-2.2074 75.207-2.6366 12.666-6.3867 30.793-8.3332 40.282s-6.0527 27.089-9.1248 39.109c-6.8188 26.679-7.1989 59.257-1.074 92.021l4.0855 21.855 2.6758-18.404c1.4717-10.122 7.0207-38.345 12.331-62.719l9.6555-44.315-4.6183-6.2965c-8.3518-11.387-8.2683-16.475 0.4863-29.665 12.288-18.513 13.518-29.884 7.7454-71.632-4.7239-34.168 1.1872-56.041 18.118-67.042 4.6774-3.0392 12.458-8.1296 17.291-11.312 10.56-6.9531 15.369-15.483 15.366-27.254 0-7.1248-1.6467-10.337-8.8952-17.368-4.8912-4.7449-10.114-8.627-11.605-8.627-1.4916 0-5.2783-2.5663-8.4148-5.7028-4.2576-4.2576-5.3366-7.1625-4.2574-11.462 0.795-3.1676 0.3591-8.8757-0.9686-12.684-3.48-9.9829 1.8506-28.915 10.312-36.624 19.018-17.328 31.485-23.247 48.969-23.247 11.328 0 18.086 3.4361 28 14.238 6.0518 6.5933 13.578 33.217 13.578 48.033 0 10.744-8.4011 24.68-19.665 32.619-11.476 8.0893-12.24 11.078-5.6105 21.953 4.994 8.1908 18.572 15.199 37.181 19.189 14.449 3.0988 21.389 8.9486 26.281 22.154 2.2219 5.9965 4.3335 11.294 4.6924 11.772 0.6307 0.8399 29.635-16.742 38.589-23.394 4.2565-3.1612 4.1633-3.5642-2.8347-12.272-11.327-14.095-16.069-52.572-8.6477-70.173 7.2223-17.129 26.928-29.612 46.742-29.612 8.9569 0 12.687 1.3473 19.674 7.1063 10.353 8.534 17.504 22.306 19.34 37.246 0.7428 6.0471 2.2381 11.543 3.3227 12.214 3.9102 2.4167 1.8382 12.757-4.9754 24.83-6.2487 11.072-7.2911 19.827-2.3606 19.827 0.9363 0 4.1435 2.1171 7.1268 4.7046 2.9836 2.5876 14.153 10.572 24.82 17.744 10.668 7.172 22.102 15.749 25.409 19.061 22.82 22.85 35.994 62.17 38.023 113.49 1.2297 31.108 1.0189 31.713-17.833 51.352l-11.476 11.955-1.8229 26.003c-2.7487 39.21-6.744 73.573-9.3646 80.542-1.5907 4.2307-5.4214 7.4033-11.948 9.8959-8.9467 3.4168-9.9611 4.7274-14.765 19.079-7.4418 22.23-8.1285 32.111-2.9898 43.015 2.3856 5.0621 10.029 21.109 16.986 35.66 20.615 43.116 24.717 52.691 34.998 81.669 5.3866 15.184 13.083 35.796 17.102 45.806 6.3195 15.737 6.8652 18.642 4.0351 21.472-2.8301 2.8301-2.681 5.1744 1.1022 17.33 2.4063 7.7314 3.9212 15.24 3.3666 16.686-1.6082 4.1909-47.126 17.693-63.819 18.93-17.778 1.3181-21.562-1.5393-12.256-9.2569 13.114-10.876 17.205-16.201 15.814-20.583-0.7603-2.3953 0.3809-7.0219 2.5478-10.329 3.7529-5.7277 3.7218-6.1512-0.7111-9.6646-5.3892-4.2714-10.006-12.933-16.882-31.669-2.7078-7.3784-5.8305-14.399-6.9393-15.601-1.1091-1.202-2.0274-3.7901-2.0407-5.7513-0.014-1.9612-8.7294-21.016-19.369-42.344l-19.345-38.778-3.6178 6.9962c-7.4869 14.478-23.868 59.821-28.816 79.762-16.882 68.031-18.608 73.582-24.351 78.306-4.302 3.5379-5.7086 6.9229-5.735 13.803-0.046 11.917-1.7172 14.15-12.674 16.936-5.0302 1.279-15.357 3.9305-22.949 5.8921-12.798 3.307-33.668 4.1442-43.135 1.7305-8.3681-2.1334-3.6461-8.6741 13.208-18.295 16.393-9.3577 26.01-19.003 18.945-19.003-1.7006 0-4.9252-1.3405-7.1659-2.979-3.8861-2.8416-3.8631-3.6104 0.4992-16.679 4.9933-14.959 10.653-37.101 14.088-55.109 1.2066-6.3265 4.3381-21.337 6.9591-33.358 2.6207-12.02 5.8344-27.549 7.1408-34.508 4.3499-23.169 9.3606-42.272 19.307-73.617 5.4205-17.081 10.59-35.456 11.487-40.834l1.6309-9.7772h-9.3604c-10.735 0-10.635 0.2144-12.82-27.606-1.3034-16.598-7.4763-78.858-7.9166-79.851-0.1178-0.2656-4.1561-1.6638-8.9741-3.1074-16.718-5.0089-19.066-8.3697-21.736-31.11-1.3244-11.282-2.6207-20.797-2.8809-21.143-0.2601-0.3461-2.0924-0.01-4.0717 0.7517-2.7908 1.0709-3.1386 2.762-1.5494 7.5308 2.2746 6.8252 8.385 57.384 11.453 94.766 1.0924 13.31 2.5407 27.346 3.2182 31.193 1.5455 8.7724 6.0589 98.221 5.0091 99.27-1.0177 1.0178-25.076 6.825-38.196 9.2196l-10.352 1.8896-1.8146 13.735c-2.3673 17.919-7.5904 50.184-12.092 74.698-5.2014 28.326-3.1765 41.064 8.4989 53.469 11.721 12.453 16.415 21.362 14.475 27.473-1.3928 4.3883-2.7411 4.6813-15.893 3.4531l-14.371-1.342-2.7332 9.123c-4.1552 13.869-15.117 25.149-24.436 25.149-6.6081 0-7.834-0.9249-9.1467-6.9015-1.6323-7.4319-0.313-16.129 4.8108-31.713 4.7617-14.483 3.9781-33.875-2.5993-64.325-6.3223-29.27-12.029-63.285-13.99-83.39-0.6783-6.9527-1.5238-12.932-1.8789-13.287-0.3551-0.3551-9.6452-2.2166-20.644-4.1364-10.999-1.9199-23.827-4.7478-28.506-6.2841l-8.5073-2.7933v-21.839c0-12.011 0.8767-32.978 1.9483-46.593l1.9483-24.754-8.5623 1.3608c-9.0404 1.4367-19.334 2.8623-22.581 3.1275-5.1238 0.4184 1.7053 86.134 9.728 122.1 4.0756 18.273 5.2457 55.355 2.2861 72.451-1.5334 8.857-3.0938 35.773-3.4676 59.814-0.6337 40.754-0.9968 43.968-5.3678 47.529-3.1216 2.5432-4.6883 6.5521-4.6883 11.997 0 10.113-3.2076 12.041-23.475 14.109-18.671 1.9053-70.564 2.9486-72.064 1.4486zm292.72-545.8 0.4947-16.998-4.2293 14.953c-2.326 8.2244-4.9921 16.774-5.9245 18.999-1.4515 3.4637-0.9143 3.7579 3.7344 2.0449 4.9669-1.8301 5.4721-3.4508 5.9246-18.999zm-1300.3 536.97c-16.585-1.5102-41.695-7.8046-49.1-12.309-6.8284-4.1527-7.2626-5.227-7.2626-17.973 0-10.311-0.9848-14.312-4.1142-16.713-3.8592-2.9606-3.9871-6.7937-2.063-61.82 3.0912-88.407 2.2737-105.65-6.7769-142.96-1.7323-7.1417-3.1497-15.743-3.1497-19.115 0-3.3716-0.8873-5.5817-1.9719-4.9114-4.4963 2.7791-12.642 60.516-12.849 91.073-0.2001 29.527 3.3544 126.95 4.8509 132.95 0.7885 3.1634-0.115 6.8473-2.2612 9.2187-1.9661 2.1724-3.9004 9.0222-4.2986 15.222l-0.724 11.272-20.705 6.5542c-22.437 7.1027-53.016 10.61-58.664 6.7284-5.0138-3.4455-0.677-9.469 11.196-15.551 13.483-6.9064 16.41-9.7082 16.41-15.708 0-2.8534 1.5529-6.4767 3.4508-8.0519 5.0626-4.2014 4.2337-7.609-2.8096-11.551-5.9713-3.3424-6.257-4.3243-6.358-21.855-0.058-10.095-1.3819-29.744-2.9415-43.662-5.4267-48.428-6.7212-80.956-6.0658-152.41l0.6595-71.889-10.797 1.2878c-16.128 1.9237-20.101-1.9468-19.615-19.111 0.2109-7.4625 3.0875-29.332 6.392-48.601 5.9393-34.63 5.9579-40.811 0.1166-38.571-1.6469 0.632-4.5842-0.074-6.5273-1.5686-4.6049-3.5423-26.652-42.252-34.961-61.38-3.572-8.2244-7.4344-16.205-8.5831-17.735-4.5456-6.0543 8.7168-47.363 29.52-91.952 4.2383-9.0834 9.3588-21.506 11.379-27.606 2.0204-6.1001 4.9692-12.824 6.5531-14.943 2.4335-3.2548 26.228-15.703 30.017-15.703 0.6762 0 6.8876-2.5881 13.803-5.7513s13.089-5.7513 13.718-5.7513 6.3897-3.2606 12.8-7.2456c11.016-6.8479 11.655-7.7771 11.655-16.938 0-7.269-1.6967-11.827-6.7863-18.232-9.6195-12.105-11.524-26.891-5.0396-39.134 2.7153-5.127 4.9342-10.588 4.9305-12.136-0.012-5.484 9.6903-22.551 15.123-26.601 8.449-6.2991 33.314-7.9189 44.453-2.8961 18.483 8.3348 22.964 21.155 20.782 59.469-1.4569 25.584-1.9633 27.738-8.7482 37.183-8.5909 11.963-8.6857 12.852-2.0257 19.018 5.0412 4.6671 31.561 19.015 35.145 19.015 6.8296 0 31.457 14.971 40.459 24.593 9.8437 10.524 10.871 12.804 14.373 31.904 2.0741 11.314 5.3572 33.512 7.2959 49.328 1.9386 15.816 4.5023 34.968 5.697 42.56 2.2335 14.192 5.628 50.913 8.0813 87.42 0.7652 11.388 2.3525 29.504 3.5274 40.259 3.189 29.191 2.9371 32.437-2.6284 33.894-4.477 1.1707-4.6965 2.3099-3.2391 16.82 1.7732 17.657-1.3175 26.985-12.485 37.685-5.4028 5.1762-7.8317 5.9873-14.272 4.7667-4.2689-0.8091-9.7177-2.9116-12.109-4.6722-4.0614-2.9907-4.103-3.5736-0.6348-8.8669 2.9212-4.4584 3.2058-7.1195 1.3348-12.486-1.8201-5.2211-1.5364-8.8336 1.21-15.406 4.4764-10.713 4.5408-10.12-1.3354-12.294-4.2263-1.5634-5.0137-3.913-5.5654-16.605-1.4127-32.509-6.0324-80.038-9.1832-94.48-1.8337-8.4054-3.334-18.499-3.334-22.43 0-3.9312-0.9701-7.1476-2.1558-7.1476-2.3602 0-1.4286 27.006 2.1428 62.114 3.1009 30.484 4.9809 75.738 3.3588 80.85-0.7454 2.3484-2.6857 4.2698-4.3117 4.2698-4.3655 0-5.5512 25.656-5.6356 121.93-0.041 46.183-1.169 96.392-2.508 111.58-1.339 15.183-3.0625 38.994-3.8302 52.912-0.9906 17.959-2.3203 25.84-4.5803 27.146-5.9941 3.4627-3.1794 10.557 9.7149 24.484 12.777 13.8 15.029 21.288 6.1521 20.45-2.254-0.2128-8.2392-0.7637-13.3-1.2246zm-156.85-544.77c1.9398-10.122 4.1446-22.545 4.8994-27.606 1.3005-8.7194 1.0535-8.4781-4.7078 4.6011-3.344 7.5917-6.5843 17.131-7.2006 21.199-0.6162 4.0678-2.4823 8.5264-4.147 9.9079-2.4806 2.0588-2.3378 3.7117 0.7919 9.1648 4.7442 8.2661 5.8116 6.4875 10.364-17.267zm672.17 542.46c-10.576-2.6334-9.4467-5.6703 5.7513-15.468 13.946-8.9905 29.907-22.128 29.907-24.618 0-1.1129-2.5881-2.0234-5.7513-2.0234-6.6677 0-7.0693-2.5879-2.4388-15.712 1.8219-5.1638 4.9744-18.493 7.0055-29.622 11.085-60.729 17.617-90.841 26.596-122.61 30.381-107.48 29.023-99.422 16.574-98.447l-8.627 0.6747-1.5626-13.803c-0.8594-7.5917-3.1849-23.12-5.1675-34.508s-3.6088-28.655-3.6136-38.37l-0.01-17.667-17.829-8.7891-17.829-8.7892-0.6439-29.332c-0.5754-26.214-2.2142-33.574-6.0828-27.314-0.6859 1.1096-5.9655 3.2057-11.732 4.6578-5.767 1.4522-11.022 4.0393-11.679 5.7495-0.6561 1.71 0.3805 9.1899 2.3036 16.622 4.0691 15.726 7.4314 46.956 10.619 98.633 2.0761 33.661 4.9012 66.423 8.3495 96.822l1.3274 11.704-10.034 4.6114c-5.5187 2.5364-18.078 7.1045-27.91 10.151-13.433 4.1628-18.132 6.6835-18.905 10.141-0.5655 2.5306-4.8018 24.535-9.4142 48.898-9.589 50.651-9.3854 59.558 1.6796 73.435 9.682 12.143 16.17 25.444 15.321 31.405-0.8361 5.8716-9.9813 7.7794-20.206 4.2152-6.3511-2.214-6.5825-2.0067-9.1508 8.1927-7.1248 28.296-24.977 46.57-32.24 33.001-3.5215-6.5798-2.8937-26.571 1.3677-43.563 3.1338-12.496 3.33-17.806 1.1953-32.355-2.4611-16.773-9.4683-56.685-14.566-82.971-1.3498-6.9591-3.1015-18.295-3.8927-25.191l-1.4387-12.538-20.296-3.9852c-27.91-5.4803-31.48-8.1335-31.407-23.33 0.033-6.6135 0.9982-21.86 2.1457-33.88s2.7441-30.137 3.5479-40.259c1.5457-19.465 14.978-98.525 20.74-122.08 4.3015-17.579 4.2891-25.727-0.051-34.048-4.9733-9.536-4.3906-13.076 5.0213-30.503l8.4579-15.66-2.7066-24.342c-3.4406-30.942-3.48-70.601-0.08-80.726 3.7708-11.228 8.1303-15.414 24.979-23.99 22.47-11.435 23.666-12.671 23.926-24.749 0.2114-9.7607-0.5482-11.235-9.962-19.332-5.605-4.8212-13.152-10.587-16.771-12.814-5.5054-3.3871-6.5163-5.4532-6.1908-12.653 0.214-4.7327-0.7816-11.524-2.2124-15.091-4.2964-10.713 1.9198-27.825 14.106-38.835 18.072-16.325 24.346-19.094 43.262-19.094 14.226 0 18.739 0.8715 22.597 4.3639 13.217 11.964 23.788 41.614 21.076 59.121-1.5503 10.013-6.5526 20.484-9.7855 20.484-0.9169 0-5.3264 3.213-9.7989 7.14-14.699 12.906-9.2005 27.809 13.723 37.197 5.0612 2.0729 12.826 4.2224 17.254 4.7768 12.202 1.5273 14.896 3.2024 22.762 14.155 4.8186 6.71 9.2941 17.903 13.358 33.408l6.1108 23.318 6.1765-13.606c5.3112-11.7 16.232-23.569 21.687-23.569 1.5519 0 27.086-11.363 28.412-12.644 0.4028-0.3891-2.9192-5.4914-7.3824-11.338-4.4633-5.8471-8.8419-14.49-9.7306-19.206-2.6329-13.974-1.9678-47.028 1.131-56.195 5.827-17.238 27.089-29.171 46.728-26.226 22.262 3.3383 31.144 15.522 36.318 49.809 2.941 19.491 2.9125 19.777-3.0827 31.039-3.3279 6.2517-6.0508 13.036-6.0508 15.077 0 4.2466 20.202 19.016 43.103 31.51 8.5925 4.6885 17.31 9.5596 19.372 10.825 5.8017 3.5598 21.201 28.607 25.458 41.41 8.174 24.581 16.234 63.973 19.197 93.834l1.5498 15.616-15.991 16.054-15.991 16.054-0.4607 23.544c-0.2534 12.948-0.9153 26.649-1.4709 30.445-0.5556 3.7958-1.6225 13.113-2.3709 20.705-3.0179 30.616-5.3173 35.382-21.034 43.611-11.719 6.1357-13.621 8.2326-19.774 21.804l-6.8082 15.015 4.0721 11.547c4.3011 12.196 21.432 52.758 32.081 75.961 10.1 22.005 11.891 26.362 20.343 49.461 4.3981 12.02 12.318 33.558 17.599 47.862 7.0925 19.21 8.9543 26.79 7.1233 28.996-1.5013 1.809-1.8964 7.2347-1.002 13.76 1.2272 8.9539 0.7419 11.33-2.8736 14.067-2.3926 1.8112-6.3527 3.3261-8.8 3.3663-2.4473 0.04-8.6587 2.0206-13.803 4.4009-13.867 6.4162-31.027 11.314-42.638 12.169-8.315 0.6126-10.436-0.011-11.096-3.2686-0.4985-2.4588 0.5771-4.0259 2.7629-4.0259 1.9685 0 8.1648-4.3998 13.77-9.7773 8.463-8.1197 9.9838-10.852 8.9718-16.117-0.6702-3.4869-0.029-7.7737 1.4262-9.5265 2.1148-2.5481 1.31-3.6523-4.0155-5.5086-5.8526-2.0402-6.7963-3.6751-7.7791-13.479-1.3681-13.647-53.872-121.58-59.142-121.58-7.2289 0-19.926 34.046-32.173 86.27-2.522 10.755-6.7083 28.575-9.3029 39.601-2.5945 11.026-4.7172 22.96-4.7172 26.52 0 3.6268-2.0234 8.206-4.601 10.413-3.3183 2.8411-4.6011 6.7863-4.6011 14.15 0 12.717-3.564 16.435-17.715 18.48-6.0727 0.8775-16.218 3.0408-22.544 4.8072-13.086 3.6537-34.572 5.7577-41.41 4.0551zm1.5442-529.03c4.4251-4.0048 5.9216-22.138 2.298-27.846-1.6271-2.563-4.6149 4.899-11.062 27.627-1.4485 5.1061 3.2345 5.2229 8.7641 0.2186zm1517.6 524.29c-1.9548-4.9261-1.4537-11.928 2.263-31.632 5.3598-28.416 5.273-29.295-8.5076-86.27-3.8255-15.816-8.1639-37.038-9.6411-47.161-3.9932-27.367-4.8046-28.757-16.785-28.757-10.015 0-29.309-3.0217-36.125-5.6577-2.9976-1.1592-4.0223 3.0556-6.5333 26.872-1.6379 15.536-3.8508 47.398-4.9176 70.806-2.1612 47.421-3.1384 52.912-9.4177 52.912-3.4984 0-4.3328 1.7178-4.3328 8.9205 0 4.9061-1.294 9.933-2.8757 11.171-3.0256 2.3677-23.346 7.8554-26.398 7.1294-2.4022-0.5712-37.671 2.799-42.157 4.0284-1.962 0.5375-4.8137 4.4239-6.3368 8.6367-3.1863 8.8114-11.524 14.202-18.527 11.98-6.5772-2.0875-10.338-17.071-8.8821-35.394 1.1455-14.422 1.0842-14.61-5.4949-16.904-7.7095-2.6875-8.6357-7.5481-2.1042-11.044 4.5157-2.4167 4.5131-2.5308-0.3509-15.61-2.6949-7.2462-11.062-27.151-18.593-44.232-7.5313-17.082-18.218-41.916-23.748-55.185-11.475-27.537-10.105-26.596-42.376-29.102-36.102-2.8025-31.832-4.9048-38.026 18.722-2.9854 11.388-10.723 37.786-17.195 58.664-13.676 44.115-15.528 55.652-11.58 72.112 2.4305 10.131 2.3382 13.66-0.5821 22.299-3.8882 11.502-9.3068 13.551-10.413 3.9371-0.4004-3.4795-1.2213-6.3264-1.8242-6.3264s-6.4868 3.9997-13.075 8.8881c-6.5885 4.8884-15.498 10.065-19.799 11.503-10.19 3.4066-27.839 3.4126-27.839 0.01 0-1.433 6.5004-8.5619 14.445-15.842 17.381-15.927 24.906-29.187 31.308-55.169 5.5274-22.436 17.467-128.75 14.731-131.17-1.0009-0.8833-9.4349-4.0491-18.742-7.0352-25.729-8.255-25.002-7.0691-19.1-31.14 13.26-54.081 16.468-68.123 16.468-72.089 0-3.4149-2.3859-4.621-11.666-5.8976-7.1772-0.9871-12.183-2.9516-13.01-5.1056-1.1752-3.0624 5.5781-34.89 10.871-51.235 1.0244-3.1632 3.1435-10.713 4.7092-16.776 1.9939-7.722 4.571-11.928 8.6017-14.04 3.884-2.035 7.5177-7.7038 11.176-17.437 2.9818-7.9318 5.4215-15.33 5.4215-16.442 0-3.1043-9.6742-2.2451-16.104 1.4303-9.0303 5.1622-19.449 4.2107-27.429-2.505-3.8929-3.2757-7.078-6.7074-7.078-7.6258 0-0.9185 3.8631-3.512 8.5842-5.7635 7.7463-3.694 8.1954-4.3779 4.6011-7.0063-5.0131-3.6656-5.0051-4.9503 0.043-6.7748 2.2142-0.8005 6.614-2.9764 9.7772-4.8355 7.6619-4.503 15.24-4.305 31.736 0.8288l13.741 4.2767 2.4146-8.3026c1.3281-4.5666 3.9979-17.62 5.9328-29.007 5.8827-34.621 14.606-65.254 22.006-77.282 4.9282-8.0093 6.9886-14.262 6.9886-21.209 0-8.4616 1.298-11.118 9.2021-18.836 11.612-11.338 12.156-17.254 1.59-17.254-4.1868 0-9.6218-1.5199-12.078-3.3776s-7.8772-3.4105-12.047-3.4508c-5.0087-0.048-9.5899-2.082-13.501-5.9933-5.663-5.663-5.871-6.7866-4.7902-25.881 1.4052-24.825 6.6792-40.788 17.138-51.875 11.563-12.256 18.069-15.929 31.446-17.754 16.286-2.2211 28.462 3.8435 38.35 19.101 15.628 24.119 17.36 52.22 4.2519 68.965-7.8697 10.053-8.5488 15.663-1.8958 15.663 7.3796 0 12.985 3.93 14.561 10.209 1.0975 4.3723 3.7483 6.3246 11.192 8.2418 17.39 4.4794 24.296 7.0364 26.594 9.8479 5.1707 6.3278 16.691 31.851 23.829 52.793 4.2042 12.335 8.1618 22.39 8.7945 22.344 1.3952-0.1005 18.733-35.697 25.168-51.674 2.548-6.3264 7.8071-21.476 11.686-33.666 3.8792-12.19 9.0793-23.997 11.556-26.238 7.5255-6.8105 5.7492-11.949-4.744-13.722-7.5754-1.2799-11.101-3.8387-19.507-14.158-11.371-13.958-13.835-21.203-16.099-47.315-1.3708-15.817-0.9501-18.953 3.8267-28.526 7.5126-15.057 19.472-22.588 35.279-22.218 20.737 0.4855 31.214 8.4027 35.87 27.105 1.5747 6.3265 4.8769 12.938 7.338 14.694 4.6933 3.3464 4.6876 2.1608 0.1636 33.919-2.0124 14.127 2.4036 25.304 10.65 26.951 3.6779 0.7356 7.8237 3.4614 9.213 6.0571 1.3892 2.5959 7.2071 9.9905 12.928 16.433 12.806 14.418 14.545 18.699 17.838 43.894l2.6164 20.022 16.104-10.369c24.869-16.013 28.757-20.512 28.757-33.268 0-9.596-0.7272-11.137-6.5963-13.98-9.821-4.7564-25.934-20.089-25.794-24.544 0.2378-7.5513 0.044-10.901-1.2517-21.593-2.4547-20.259 7.2807-36.185 30.1-49.243 16.67-9.5385 34.248-9.3749 46.457 0.4322 4.8658 3.9091 11.214 11.343 14.108 16.519 5.7235 10.241 11.993 31.759 11.993 41.163 0 8.3304-8.6765 22.764-15.822 26.32-12.526 6.2338-16.111 11.101-14.821 20.121 1.579 11.042 9.0758 17.566 24.123 20.992 27.961 6.3669 29.053 6.8608 35.973 16.269l6.7824 9.2228 8.4929-17.884c10.128-21.327 13.046-24.814 26.587-31.773 5.6938-2.9256 12.416-6.8662 14.938-8.757 4.5143-3.3841 4.4881-3.5147-1.67-8.3587-8.4765-6.6679-11.802-19.915-11.614-46.271 0.1726-24.337 4.4023-36.604 15.675-45.472 7.6635-6.0283 28.204-10.283 39.459-8.1729 17.786 3.3344 30.632 20.082 30.632 39.94 0 4.9609 1.1539 9.7331 2.5644 10.605 4.7469 2.9337 1.0166 22.957-5.7822 31.036-10.727 12.748-8.2267 16.681 18.768 29.52 27.494 13.077 46.74 26.859 54.292 38.879 17.812 28.347 34.034 122.28 24.39 141.24-1.4884 2.9263-8.6258 11.014-15.861 17.973l-13.154 12.653-2.6734 49.461c-1.4703 27.204-3.5152 52.567-4.5443 56.363-1.3481 4.9733-4.8449 8.4897-12.515 12.586-9.8476 5.2588-11.076 6.9423-16.409 22.497l-5.7651 16.813 7.0591 15.462c3.8826 8.5042 15.84 33.576 26.571 55.717 10.732 22.139 22.581 48.539 26.332 58.664 9.5755 25.853 22.721 78.241 22.143 88.246-0.2664 4.6098 0.303 11.684 1.2653 15.72 1.7059 7.1546 1.5004 7.4029-8.18 9.8959-5.4614 1.4065-18.212 5.2034-28.333 8.4377-20.483 6.5445-47.938 9.7124-50.349 5.8095-1.7511-2.8333 0.1496-4.6148 15.841-14.845 10.807-7.0453 11.457-8.0194 10.748-16.094-0.4461-5.0784 0.2597-8.5945 1.7254-8.5945 1.3642 0 2.4804-1.5529 2.4804-3.4508 0-1.898-0.894-3.4508-1.9867-3.4508-1.0928 0-4.5735-2.5865-7.7349-5.7479-4.1814-4.1814-6.1633-9.2831-7.2724-18.72-1.1109-9.4524-5.7872-21.469-17.236-44.288-24.926-49.685-33.51-64.426-37.616-64.601-4.0073-0.1723-27.077 58.314-27.077 68.648 0 2.5748-0.9637 7.0594-2.1413 9.9659-1.1779 2.9065-4.9013 20.813-8.2744 39.792-6.9107 38.886-8.7282 44.86-13.647 44.86-3.4933 0-5.213 4.6622-6.3639 17.254-0.5805 6.3492-1.5515 7.063-12.134 8.9205-6.3265 1.1104-19.579 4.475-29.451 7.4767-22.277 6.7744-46.059 7.5639-44.89 1.4903 0.4201-2.1821 9.8131-9.95 20.873-17.262 20.364-13.463 24.096-18.6 15.204-20.926-3.8437-1.0051-4.5845-2.4319-3.4243-6.5947 5.3802-19.305 21.196-107.98 25.471-142.82 0.586-4.774 5.2087-20.82 10.273-35.658 12.968-37.998 23.353-78.372 20.596-80.077-1.2439-0.7688-4.7274-0.7789-7.7413-0.023-3.0137 0.7564-6.0815 0.4013-6.8172-0.7891-1.5749-2.5483-8.7038-43.137-12.754-72.621-4.4437-32.341-5.1038-34.209-13.004-36.811-10.234-3.3707-14.596-7.8078-14.596-14.848 0-3.4301-0.5961-6.8326-1.3246-7.5612-0.7286-0.7286-7.4825 1.4282-15.009 4.7927-11.14 4.9802-13.497 6.9729-12.679 10.719 0.5529 2.5306 3.0768 12.883 5.6087 23.005 2.532 10.122 5.7518 24.616 7.1554 32.208 2.5386 13.731 10.191 101.58 12.573 144.34l1.2489 22.415-8.9762 4.5792c-4.9367 2.5186-16.013 6.5071-24.613 8.863l-15.638 4.2838-5.2351 27.386c-10.226 53.494-14.129 82.922-12.157 91.664 1.125 4.9874 6.067 12.854 12.182 19.392 10.683 11.421 15.02 20.108 11.657 23.35-1.0746 1.0364-7.6028 2.2286-14.507 2.6493-12.45 0.7587-12.576 0.8409-15.286 9.9617-4.0256 13.552-9.2368 22.352-15.194 25.658-8.3721 4.6469-13.218 3.665-15.955-3.2333zm-154.96-43.206 6.9016-5.6572-9.7773-0.012c-8.8984-0.012-9.7772 0.5055-9.7772 5.7398 0 7.2064 3.8005 7.185 12.653-0.071zm-14.378-35.143c2.2143-1.9016 4.0259-5.5266 4.0259-8.0553s4.3358-8.6005 9.6351-13.493l9.6351-8.895-7.6221-6.3633c-8.578-7.1613-8.4117-6.3152-11.621-59.11-1.0768-17.714-3.604-41.007-5.6163-51.762-2.0122-10.755-4.7462-34.566-6.0757-52.912-1.3294-18.347-3.1308-43.183-4.0032-55.19l-1.586-21.833-10.708-5.072c-14.399-6.8199-18.048-12.624-18.048-28.706 0-7.2356-0.8571-13.685-1.9046-14.333-1.0475-0.6474-5.7189 2.5279-10.381 7.0558-8.3958 8.1549-8.466 8.3773-7.3932 23.472 0.5956 8.3812 1.6968 27.662 2.4468 42.845 1.5666 31.708 5.8022 58.185 13.864 86.668 3.1062 10.974 6.0704 26.672 6.5871 34.885 0.5167 8.2124 1.9933 18.386 3.2812 22.607 6.7388 22.088 25.706 106.2 25.706 114 0 1.282 4.9461-1.6532 9.7772-5.8021zm92.486-181.61c0.7537-7.2754 2.3543-18.404 3.5571-24.731 5.2263-27.491 11.64-68.5 10.838-69.301-0.4804-0.4805-7.2556-0.2066-15.056 0.6087l-14.182 1.4823v11.062c0 6.084 0.9718 16.03 2.1594 22.102 1.1877 6.0724 3.3873 24.758 4.888 41.522 1.5007 16.765 3.5603 30.482 4.5766 30.482 1.0165 0 2.4648-5.9526 3.2185-13.228zm26.746-142.37c5.268-22.298 5.611-33.795 1.1195-37.522-6.911-5.7357-6.5202-15.206 1.3515-32.755 6.4661-14.414 7.5952-19.637 7.8658-36.385 0.4716-29.189-1.8754-32.182-7.8559-10.018-2.7503 10.193-7.6198 26.194-10.821 35.555-8.0243 23.47-9.3864 45.87-4.6722 76.835 4.3262 28.418 6.0918 34.818 7.6168 27.606 0.5351-2.5306 2.9629-13.024 5.3952-23.32zm-318.62-50.865c-1.4935-1.4935-5.101 6.3106-8.9785 19.424-2.6281 8.8875-2.8377 12.176-0.8199 12.861 2.5895 0.8786 11.989-30.093 9.7984-32.283zm142.31 1.9567c4.5364-7.4677 10.361-18.354 12.943-24.192 4.492-10.155 4.5376-11.229 1.0525-24.832-4.351-16.983-4.971-17.828-7.8802-10.737-1.2351 3.0105-5.9324 13.886-10.438 24.167-6.6845 15.252-8.1929 21.5-8.1929 33.933 0 8.3815 0.9603 15.239 2.134 15.239 1.1736 0 5.8456-6.1099 10.382-13.578zm318.09-40.156c1.8859-1.7853 2.332-6.9133 1.3904-15.982-0.7624-7.3445-2.1342-12.521-3.048-11.503-0.914 1.0179-3.7588 8.8734-6.3218 17.456l-4.6602 15.606 4.9312-1.4744c2.7121-0.811 6.1808-2.6574 7.7084-4.1033z"/>
   </g>
   <g transform="translate(-7789.5 3617.1)">
    <path d="m-692.61-1824.9c-4.0463 0.098-9.0301 1.6322-14.893 4.6032-1.6117 0.8168-3.437 1.2863-4.9418 1.2863-1.9962 0-3.0012 0.3949-6.2281 2.5725-2.1169 1.4285-6.3724 5.1151-9.4775 8.1913-4.9152 4.8691-5.732 5.9723-6.4989 8.462-1.9542 6.3451-2.6609 25.341-1.0832 29.38 0.7417 1.899 1.0984 4.5773 1.9632 14.284 0.36354 4.0802 1.2283 11.13 1.6247 13.268 0.38343 2.0692 2.427 4.7385 5.2126 6.702 1.6104 1.1351 2.483 2.1147 2.8432 3.4525 0.27988 1.0389 1.4323 3.3131 2.5725 5.0773l2.0309 3.2494-0.27078 7.3789c-0.17525 4.0744-0.65174 8.1729-1.0154 9.0713-0.36371 0.8985-2.7827 3.9488-5.348 6.7697-2.5653 2.821-5.7535 6.9078-7.1081 9.1391-1.5684 2.5834-3.1775 4.5084-4.4003 5.2803-3.1563 1.9925-28.084 12.473-42.92 18.007-11.803 4.403-14.955 6.5199-17.669 11.915-3.4814 6.9191-5.1167 14.466-9.139 41.904-0.58698 4.0041-1.5264 10.423-2.0986 14.284-5.0812 34.289-4.8347 31.4-4.468 51.449 0.33075 18.084 1.4515 37.432 2.4371 42.581 0.49629 2.593 1.5071 14.602 4.1972 50.028 1.6964 22.34 1.5555 21.915 7.6497 33.036 5.4289 9.9073 9.2548 16.052 10.967 17.601 0.6869 0.6216 0.95946 1.3873 0.81236 2.3017-0.12131 0.7545-0.69561 4.5332-1.2862 8.3943-0.59064 3.8612-1.4172 9.0097-1.8278 11.441-1.1717 6.9375-1.8222 13.349-1.4893 14.216 0.32776 0.8541 2.0725 1.6404 4.7388 2.1663 1.918 0.3782 1.8672 0.2299 3.2494 7.7851 5.4777 29.94 9.4594 49.411 11.982 58.287 2.2562 7.9395 8.2605 33.308 9.3421 39.535 0.29808 1.7157 1.4422 14.426 2.5725 28.297 2.8254 34.678 3.0104 37.574 4.1972 60.318 0.57463 11.011 1.7931 32.943 2.6402 48.674 0.84702 15.729 1.9181 35.686 2.3694 44.409 0.45135 8.7233 0.93194 16.67 1.0831 17.669 0.62324 4.1133 6.402 7.2326 14.352 7.7173 2.212 0.135 4.1884 0.5431 4.468 0.8801 0.54049 0.6511-4.1008 10.369-9.2067 19.226-2.4028 4.1674-2.7078 4.9781-2.7078 7.7173 0 4.8664 1.2413 8.3684 3.791 10.561l2.234 1.8277 12.998-0.2029c12.31-0.1959 13.386-0.2574 20.444-1.8278 4.1004-0.9122 7.8807-1.8914 8.3944-2.1663 1.2825-0.6865 1.6271-1.7142 2.3694-6.4989 0.71878-4.6339 1.157-5.1697 4.6034-5.6865 4.7661-0.7149 7.0393-4.637 7.4466-12.862 0.28688-5.7926 0.10464-6.8296-1.6924-9.4775l-1.2862-1.9631 1.2862-1.1509c1.2295-1.1102 1.2712-1.5757 2.3017-15.435 2.2477-30.228 2.1094-32.786-3.5879-60.047-1.9735-9.443-4.036-19.352-4.6034-22.069-0.56739-2.7172-1.1854-6.851-1.3539-9.139-0.3694-5.0146-1.2815-15.655-1.6247-19.226-0.67191-6.9885-0.41697-53.844 0.40618-73.315 1.266-29.949 2.5914-69.798 3.3171-100.26 0.18955-7.9523 0.53844-14.311 0.74467-14.081 0.93626 1.0439 3.3161 9.2433 5.1449 17.601 1.415 6.4677 3.6127 19.988 4.2649 26.537 1.4883 14.95 2.5268 25.338 2.7756 27.282 0.12802 1.001 0.56919 5.3227 1.0154 9.6129 0.44634 4.2901 0.95771 8.6118 1.0831 9.6129 0.12542 1.001 0.56595 5.2627 1.0154 9.4098 0.44957 4.1471 1.0798 9.3558 1.3539 11.644 0.27415 2.2881 0.60278 5.7229 0.74467 7.582 0.44312 5.8028 1.3683 17.442 1.557 19.564 0.0992 1.1155 0.3479 4.1279 0.54157 6.7019 0.19367 2.5742 0.43066 5.6857 0.54158 6.9727 0.62558 7.2636 1.7589 40.623 1.7601 51.246 9.1e-4 8.4009-0.50779 13.204-4.3326 38.722-2.1399 14.278-3.0953 32.951-2.7078 52.736 0.32613 16.655 0.33912 17.114 1.557 19.497 1.2874 2.5182 2.9565 4.5282 3.9941 4.8741 0.41047 0.1367 0.18522 1.193-0.60927 3.5202-1.433 4.1985-1.5482 10.572-0.27078 14.013 1.1237 3.0268 2.8864 4.8647 7.1758 7.3789 2.8012 1.642 4.1424 2.9058 6.7697 6.4312 1.7993 2.4145 3.8884 4.5999 4.6034 4.8742 2.0471 0.7848 18.864 0.6392 25.251-0.203 6.6388-0.8756 9.0968-1.8105 13.607-5.2127 4.3862-3.3088 4.9912-4.307 4.6034-7.582-0.45665-3.8547-3.2571-9.2394-9.139-17.466-7.052-9.8631-6.9933-10.776 0.88006-12.93 6.363-1.7403 9.2572-3.0444 10.019-4.4678 0.48223-0.9012 0.55179-7.8009 0.20298-30.057-0.52999-33.822-0.55631-36.168-0.0678-93.354 0.42741-50.026 0.85341-61.952 2.9786-84.012 1.8419-19.117 2.3938-25.515 3.0463-35.067 0.27359-4.004 1.143-11.25 1.8955-16.112 1.505-9.7224 2.2741-26.501 2.0986-44.883l-0.0678-9.9514 2.5048-0.5416c1.3884-0.2979 3.2178-0.5416 4.0618-0.5416h1.557v-5.8896c2e-3 -3.2176-0.6022-11.916-1.3539-19.361l-1.3539-13.539 2.9786-4.6711c1.6472-2.5655 4.1455-6.3236 5.5511-8.3944 7.1741-10.569 10.833-21.916 14.419-44.612 2.695-17.053 2.8157-18.782 3.0463-50.976 0.22175-30.932 0.10551-35.019-1.9632-69.66-2.7759-46.482-4.5276-64.979-7.3112-76.836-1.0253-4.3675-1.3627-4.9506-3.5879-7.1759-3.0393-3.0401-3.7504-3.3067-32.02-11.17-2.5742-0.7159-6.7077-1.8712-9.2067-2.5724-6.436-1.8059-23.518-9.3434-26.808-11.847-4.062-3.091-8.4103-8.0205-11.17-12.659-2.0101-3.3788-2.586-4.9645-3.2494-8.8006-0.44504-2.5739-0.65779-5.37-0.47387-6.228 0.18391-0.8581 1.5491-3.2107 3.0464-5.2127 4.6871-6.2673 5.1041-7.5653 6.0927-20.174l0.60927-8.1236-1.4893-2.1662-1.557-2.234-0.13539-10.425c-0.29516-23.462-0.29433-23.288-1.557-25.318-1.4841-2.3864-14.558-15.198-16.586-16.247-1.5355-0.794-7.7712-2.0744-13.201-2.7078-1.5732-0.1835-4.1812-0.6713-5.8219-1.0832-1.1441-0.2871-2.3746-0.3712-3.7233-0.3385z"/>
    <path d="m-1055-1837.8-5.412 2.0759c-2.9754 1.1116-6.0681 2.122-6.8947 2.2982-2.2343 0.4761-8.1063 5.139-11.046 8.7481-5.4964 6.7463-6.4868 10.09-7.1912 25.503-0.7208 15.77-0.7669 16.392-1.9276 18.164-1.4161 2.1612-0.796 10.233 1.3345 17.719 1.3204 4.6394 2.1205 6.2935 4.374 9.193 1.5432 1.9855 3.2182 3.5585 3.781 3.5585 1.1857 0 2.8712 2.2947 3.9293 5.2637 0.6225 1.7452 0.6184 3.0953 0 7.7102-0.4195 3.1299-1.0808 5.9778-1.5569 6.5241-0.8972 1.0296-2.3262 1.9712-17.274 11.417-10.618 6.7096-15.573 9.5303-32.991 18.682-22.801 11.981-30.751 16.649-31.879 18.757-0.637 1.1902-1.6741 7.7918-3.4103 21.944-0.6149 5.0114-1.742 13.992-2.5206 19.943-1.3688 10.462-2.2267 21.32-2.8914 36.179-0.175 3.9151-0.5948 10.665-0.8896 15.05-1.2957 19.273-1.8352 50.061-1.4827 82.588 0.2002 18.481 0.3702 47.211 0.3707 63.832v30.174l2.0016 0.9638c1.1006 0.5249 3.0176 1.1295 4.3 1.3345l2.3723 0.3707-0.3706 5.1895c-0.593 8.0872-0.5412 21.823 0.1482 26.393 0.9979 6.6132 3.0653 10.087 8.674 14.382 2.6096 1.9982 5.6393 3.9424 6.6723 4.374l1.8534 0.8155-0.2965 3.5586c-0.5956 7.3662-1.4623 27.395-1.7793 41.665-0.5499 24.749-1.1825 35.77-3.6327 59.828-3.0539 29.986-2.9811 28.585-2.5948 50.116 0.2024 11.277 0.6206 25.335 0.9638 31.286 0.8493 14.73 0.5998 59.488-0.3707 68.651-0.4147 3.9151-0.6214 7.2317-0.5189 7.4136 0.1025 0.1817 1.6045 0.6504 3.3361 1.0379 1.7317 0.3875 3.2376 0.9808 3.4103 1.2604 0.6382 1.0322-3.1708 7.2109-7.7843 12.677-2.613 3.0957-5.856 7.1098-7.2654 8.8964-1.4095 1.7867-3.9828 5.0263-5.7086 7.1913-4.1845 5.2498-5.1932 7.1199-5.5602 10.676-0.2421 2.3454 0.014 3.6254 1.0379 6.0051 1.5084 3.5061 3.1274 4.5054 8.3774 4.9672 1.7862 0.157 5.8383 0.6 8.9706 1.0379 8.8897 1.2427 16.128 1.5965 19.424 0.8896 3.3697-0.7228 8.8796-4.3286 14.457-9.4895 3.4812-3.2207 3.6697-3.2932 6.5982-3.1878l2.9654 0.074 4.1517-4.6706c2.2815-2.5652 5.2319-5.6418 6.524-6.8947 1.292-1.2528 2.678-2.8744 3.0396-3.5586 0.403-0.7627 0.5931-4.2545 0.5931-8.9705 0-6.8346 0.177-7.7163 1.1121-8.3774 0.9648-0.6823 1.067-2.0639 1.4086-16.681 0.2049-8.7706 0.408-22.903 0.4448-31.36 0.037-8.457 0.4113-18.548 0.8155-22.463 0.4041-3.9153 1.1266-11.578 1.631-16.977 0.7627-8.1658 2.383-18.703 5.4861-36.03 0.5271-2.9418 1.2035-5.6528 9.6378-36.698 3.4038-12.528 6.588-24.225 7.0429-25.948 0.4548-1.7228 2.7571-10.003 5.1155-18.46 5.2128-18.692 10.554-39.343 11.269-43.592 0.29-1.7228 0.7293-4.7846 1.0379-6.8205 0.5483-3.6167 1.0181-5.9557 3.4845-19.35 0.6632-3.602 1.0407-7.5735 0.8896-8.7481-0.1547-1.2007-0.067-1.9584 0.2223-1.7793 0.2835 0.1751 0.5188 0.7307 0.5189 1.2603 3e-4 0.5298 1.198 5.5927 2.5948 11.269 1.397 5.6761 2.655 11.688 2.8172 13.345 0.1623 1.6562 0.9365 8.7236 1.7052 15.643 1.0732 9.6603 1.5309 18.113 2.0017 36.624 0.3372 13.258 0.4706 24.332 0.2965 24.613-0.7301 1.1814-0.2643 77.175 0.5931 96.822 0.6361 14.581 0.7959 25.593 0.5189 39.589-0.3685 18.623-0.3969 19.57 0.7414 23.353 1.5165 5.0401 2.0659 10.986 1.4086 15.569-0.6076 4.236-0.2168 4.8556 3.262 5.412 1.2739 0.2038 2.2983 0.547 2.2983 0.7413s-0.4392 1.0992-1.038 2.0759c-2.0947 3.4169-3.0252 8.0779-2.8171 14.086 0.1843 5.3276 0.256 5.6734 1.8534 7.3395 2.2402 2.3368 6.3687 4.1897 15.05 6.6723 8.6098 2.4626 8.5383 2.4004 15.791 7.7103 3.1648 2.3168 7.8976 5.2892 10.527 6.5981 4.2636 2.1221 5.6852 2.473 13.048 3.4844 4.5077 0.6192 8.8077 1.2628 9.6378 1.4086h0.0742c2.2695 0.378 11.769-0.066 15.939-0.7413 5.108-0.8268 12.648-3.7472 14.827-5.7827 1.6757-1.5653 1.8012-1.8729 1.5569-4.8189-0.15847-1.9114-0.71622-3.7338-1.4086-4.6706-1.5715-2.1261-6.5671-6.1014-14.457-11.491-14.876-10.162-25.972-19.974-28.913-25.503-0.94195-1.7708-0.98228-1.7258 2.0017-2.5947l2.7431-0.8155 0.37068-14.753c0.56327-20.792 1.4702-36.995 2.4465-44.63 1.31-10.246 2.5879-20.868 3.1879-26.467 0.30212-2.8188 0.94572-7.2062 1.4086-9.7118 0.46282-2.506 1.226-6.9587 1.7051-9.9344 0.47905-2.9754 1.3777-8.2681 2.0017-11.714 1.2438-6.8678 2.2981-13.986 3.6327-24.465 0.47868-3.7586 1.2339-9.8402 1.7052-13.493 1.4073-10.908 2.4002-63.976 1.5569-83.7-0.37768-8.835-0.46562-16.294-0.22229-16.532 0.24317-0.2384 3.5068-2.3522 7.2654-4.7448 7.9057-5.032 9.6403-6.5846 15.643-14.012 4.7579-5.887 4.8589-6.311 6.8206-16.755 0.5884-3.1322 1.5908-7.043 2.2241-8.6739 0.77695-2.0009 1.3046-5.0017 1.5569-9.3413 0.20568-3.5369 0.56443-6.8483 0.8155-7.3395 0.35799-0.7004 1.1856-0.8482 3.781-0.6672 1.8206 0.1271 4.0553-0.093 4.9672-0.4448l1.631-0.5931-0.37068-21.203c-0.20355-11.656-0.57685-30.183-0.88964-41.146-0.31283-10.963-1.0072-34.907-1.4827-53.23-1.069-41.189-2.7027-74.855-4.2258-85.702-0.30794-2.1925-0.93507-6.7196-1.4086-10.008-0.47357-3.2888-1.0362-6.9763-1.1862-8.2292-0.14993-1.2528-0.49938-4.0349-0.8155-6.2274-1.1222-7.7817-2.2316-16.038-2.5948-19.127-0.48041-4.0876-7.828-29.69-9.1929-32.027-0.88822-1.5205-2.8141-2.5622-12.158-6.8206-6.1017-2.7809-20.726-8.6565-32.472-13.048-19.553-7.311-21.705-8.2645-25.355-11.046-6.8664-5.2332-10.981-9.1975-11.714-11.417-0.7179-2.175-0.3709-8.58 0.7414-15.569 0.9554-6.0041 1.513-7.4137 3.0396-7.4137 3.0691 0 5.0862-7.1205 5.7085-19.794 0.3782-7.7019 0.3986-8.1729-0.8155-10.231-1.2588-2.1335-1.2734-2.2299-0.519-9.8602 0.4194-4.2416 0.7509-9.9923 0.7414-12.826-0.026-7.2486-1.4666-9.9922-9.3412-17.941-9.5075-9.5981-15.01-11.714-31.953-12.307l-9.4154-0.3707z"/>
    <path d="m-1437-1811.9c-3.715 0.1025-5.9875 1.1713-14.234 5.1155-7.4364 3.5566-8.4833 4.4024-13.048 11.269-4.4325 6.6683-5.5318 11.64-6.3758 28.691-0.3747 7.5706-0.4594 8.1389-1.7051 9.1188-1.2011 0.9447-1.325 1.5104-1.3345 5.7085-0.012 6.6621 1.9997 14.762 4.3 17.274 0.9657 1.0542 2.5031 2.1019 3.4844 2.2982 1.8398 0.368 3.0396 2.3048 3.0396 5.0413 0 1.7022 3.0394 9.8116 5.2637 14.086 1.714 3.2942 1.8059 3.9598 1.7051 8.6739-0.1048 4.9008-0.1872 5.0947-2.0017 6.9689-2.5503 2.6354-28.899 15.828-52.266 26.17-9.6529 4.2722-17.995 8.801-20.832 11.269-1.9821 1.7242-2.0593 1.8673-3.7068 11.417-3.671 21.279-4.5176 28.659-4.5224 39.663-0.012 26.362-1.2382 60.119-2.5206 69.095-0.1343 0.9397-0.6659 5.4668-1.1862 10.008-0.5202 4.5417-1.1314 9.1346-1.3344 10.231-0.4497 2.4246-0.3361 26.567 0.1482 33.806 0.1922 2.873 0.5756 10.342 0.8897 16.607 0.503 10.032 0.7344 12.895 1.4827 19.053 0.095 0.7831 0.6045 5.3102 1.1121 10.008 0.5075 4.6982 1.0583 9.2912 1.1861 10.231 0.1279 0.9394 0.6279 6.298 1.1121 11.936 0.4842 5.6379 1.0135 11.346 1.1862 12.677l0.2965 2.4465h4.893l-0.2965 5.0413c-0.257 4.5082-0.055 5.6375 1.5569 10.824 1.4787 4.7594 2.6106 6.951 6.3016 12.455 2.4687 3.681 4.9821 7.2437 5.6344 7.9326 1.8945 2.0016 6.1849 3.6423 11.936 4.5224 2.9374 0.4495 5.6318 0.9272 5.9309 1.112 0.2989 0.1848 3.9703 0.5409 8.2291 0.7414l7.7844 0.3707 0.074 10.824 0.074 10.824 7.5619 27.801c4.1232 15.302 7.5772 27.957 7.7103 28.172 0.3029 0.4887 5.095 18.395 6.9688 26.022 0.9082 3.6966 1.5873 8.6893 1.9275 14.234 0.2883 4.6982 0.6597 9.2912 0.8155 10.231 0.1562 0.9394 0.7636 7.2188 1.4086 13.938 0.6451 6.7188 1.3449 12.983 1.4828 13.938 2.1485 14.882 2.8224 25.302 2.6689 40.775-0.1805 18.181 0.4716 35.031 1.4827 36.92 0.368 0.6878 2.0399 2.7283 3.7069 4.5965 3.5395 3.9671 4.255 6.1319 6.005 17.644 1.3885 9.1348 1.4467 11.885 0.2966 18.46-1.1786 6.7385-1.4634 7.3736-5.2637 11.417-1.8101 1.9261-4.8065 5.4352-6.6723 7.7843l-3.4103 4.2258v4.3741c0.024 3.8959 0.2247 4.6451 1.8534 7.2653 1.0034 1.6142 1.8534 3.4324 1.8534 4.0034 0 0.5709 0.4157 1.6214 0.9638 2.2983 0.8258 1.0197 2.002 1.3297 6.8206 1.8534 3.3656 0.3657 5.679 0.8739 5.4861 1.1862-0.2017 0.3264 0.3922 0.3136 1.4827 0.074 1.1857-0.2604 2.1265-0.1305 2.7431 0.3707 0.8108 0.6592 0.9101 0.6979 0.5931-0.1483-0.4118-1.0993 0.3854-1.9737 0.9637-1.0379 0.3229 0.5227 3.5332 0.6517 15.42 0.5931 0.6265 0 4.7337-0.049 9.1188-0.074s9.5335 0.1151 11.491 0.2966c3.1492 0.2919 3.5515 0.2256 3.5586-0.6672 0-0.6164 0.1893-0.7508 0.4448-0.3707 0.2301 0.3422 1.2727 0.7642 2.2982 0.9638 1.7828 0.3469 1.812 0.3243 1.1862-0.8897-0.36-0.6985-1.137-1.8201-1.7051-2.4465-0.8412-0.9276-1.0221-2.2611-1.1121-7.1171-0.061-3.2791-0.3257-6.7038-0.5931-7.6361-0.3387-1.1812-0.2436-2.0669 0.2966-2.8913 0.5191-0.7921 0.8062-3.6208 0.9638-8.674l0.2965-7.5619 3.4103-3.4103 3.4844-3.3362 1.1862-6.4498c1.9573-10.441 2.5584-16.307 2.15-21.203-0.3509-4.2086-5.5358-25.738-10.305-42.777-3.3644-12.02-3.6153-13.481-4.5224-24.317-0.49-5.8543-1.0395-11.558-1.1861-12.752-0.1467-1.193-0.6462-9.3933-1.1121-18.163-0.7555-14.223-0.7777-17.25 0-28.172 1.2645-17.755 1.805-89.853 0.8155-109.5-0.8122-16.128-0.6727-17.192 2.0017-14.679 2.7508 2.5835 4.7977 6.6929 14.679 29.358 8.5165 19.534 11.869 27.693 21.055 51.228 1.4794 3.7911 1.5228 2.6452-0.2223 29.951-1.7162 26.853-0.3889 90.773 2.6689 127.07 0.566 6.7197 2.6825 14.64 6.8947 25.874l4.3741 11.639h4.2257l0.3707 6.8947c0.2048 3.8079 0.3707 8.5034 0.3707 10.453 0 3.4096 0.1189 3.6652 2.4465 6.005 1.6662 1.6749 2.17 2.4844 1.631 2.669-0.4306 0.1473-1.2661 0.7472-1.8534 1.3344-0.9641 0.9644-1.112 2.0979-1.112 11.269 0 5.5857 0.162 10.319 0.3706 10.527 0.592 0.592 0.6735 0.4856 0.3707-1.1862-0.1558-0.8614-0.092-1.4101 0.1483-1.1862 0.2406 0.224 0.8933 0.1673 1.4827-0.1483 0.6813-0.3645 1.392-0.3412 2.0017 0 0.5839 0.3257 1.5451 0.3146 2.3724 0 0.7475-0.2842 1.6407-0.3712 2.0017-0.1482 1.0678 0.6599 5.697 0.773 6.4499 0.1482 0.4556-0.3788 0.8097-0.3693 1.0379 0 0.228 0.3689 0.8796 0.3171 2.0017-0.074 1.2621-0.44 2.2001-0.3837 3.4844 0.1483 1.2121 0.5021 1.8892 0.5702 2.1499 0.1482 0.4672-0.7559 6.4604-0.7026 7.043 0.074 0.2679 0.3572 0.6121 0.3133 0.9638-0.2223 0.36-0.5486 0.5884-0.6704 0.5931-0.2223 0.01 0.5185 0.3661 0.5728 1.4828 0.1483 0.8264-0.3143 1.688-0.3878 1.8534-0.2223 0.1653 0.1653-0.027 0.2965-0.4449 0.2965-0.4175 0-0.6843 0.1312-0.5189 0.2966 0.1653 0.1653 1.027 0.017 1.8534-0.2966 1.0956-0.4165 1.4827-0.4138 1.4827 0.074 0 0.5047 0.1519 0.5155 0.6673 0 0.962-0.962 1.631-0.8373 1.631 0.2965 0 0.753 0.1357 0.8281 0.6672 0.2966 0.3759-0.3759 1.0875-0.6672 1.631-0.6672 0.5434 0 1.7131-1.0625 2.5948-2.2983 1.6761-2.3496 5.4328-4.1851 9.8602-4.893 1.4409-0.2306 3.0679-1.1355 4.8188-2.7431 2.5703-2.3597 2.5948-2.5206 2.5948-5.9309 0-4.9483-2.1663-10.66-4.9671-13.122-9.0139-7.9246-10.43-9.3794-11.862-12.307-0.8347-1.706-1.6751-3.9961-1.9275-5.1155-0.4344-1.926-0.3424-2.0855 1.4086-2.8172 1.7519-0.7321 1.9058-1.1126 3.3361-6.8205 0.8307-3.3152 1.4827-7.5141 1.4827-9.3412 0-2.4374 0.5905-4.9889 2.2241-9.4895 1.5364-4.2326 2.4245-7.9372 2.8914-11.936 0.8997-7.7079 0.5085-135.48-0.4449-142.71-0.3506-2.6623-1.1565-9.8317-1.7792-15.939-2.1795-21.375-2.8608-27.136-3.7069-31.656-0.4689-2.5057-1.2927-6.819-1.7792-9.6378-0.4866-2.8191-1.8568-10.894-3.1138-17.941-6.9016-38.692-8.0153-45.757-7.4136-48.411 1.6492-7.2746 2.4043-16.388 2.0016-23.946-0.2253-4.2283-0.3683-9.1013-0.3706-10.824v-3.1137l3.1878-0.1483c1.7631-0.094 3.1879-0.2649 3.1879-0.3707 0-0.1067 2.454-14.736 5.4861-32.546l5.5603-32.398 0.2223-22.686c0.2196-22.373 0.1622-22.77-1.2604-30.174-0.793-4.1274-1.9343-10.969-2.5947-15.198-1.8823-12.052-5.6258-33.901-6.8948-40.479-2.8288-14.662-3.4457-19.08-4.1516-28.172-0.7101-9.1443-0.9372-10.086-3.4844-17.348-3.4822-9.9275-8.1242-20.651-9.9344-22.834-1.3332-1.609-3.1084-2.1806-27.653-8.8223-14.408-3.8987-29.372-7.8454-33.287-8.7481-12.434-2.8665-14.443-4.0084-19.201-10.972-3.1494-4.6093-3.6585-7.6403-2.15-12.752 0.545-1.8467 1.1551-5.3449 1.4086-7.7844 0.4987-4.7976 1.1192-6.229 5.2637-12.232 2.4851-3.5999 2.757-4.3552 3.262-8.7481 0.8965-7.7985 0.7342-9.6599-0.9638-12.158-1.5054-2.2156-1.4985-2.2371-1.4086-12.677 0.089-10.306 0.1127-10.542-1.631-15.717-2.6703-7.9249-4.3841-11.035-7.7102-14.308-7.2879-7.1717-18.862-11.24-34.251-12.084-1.8375-0.1008-3.2099-0.1825-4.4482-0.1483z"/>
    <path d="m-383.84-1824.7-12.467 0.306c-13.848 0.2947-17.305 0.9166-22.64 4.1303-7.4057 4.4615-13.931 12.026-15.986 18.51-1.531 4.8313-1.6552 12.447-0.30595 20.958 0.51237 3.2316 1.7715 12.208 2.7535 19.963 1.5934 12.583 3.3649 21.246 4.6657 22.946 0.24723 0.3231 0.56197 1.2901 0.76487 2.1416 0.73036 3.0639 3.8403 9.0867 6.4249 12.544 3.0071 4.0224 3.9969 6.5028 3.9773 9.9434-0.0303 5.0806-1.0603 7.4188-5.6601 13.079-7.0224 8.642-11.179 12.05-24.093 19.81-13.996 8.4108-17.949 11.013-21.187 13.997-4.5212 4.1658-5.5092 8.1089-10.173 41.303-4.5178 32.154-5.6445 59.038-4.8187 111.59l0.5354 35.872 1.5298 4.6658c2.6992 8.3539 9.5099 18.25 15.756 22.793 3.6687 2.6683 3.9984 2.998 3.5949 4.4363-0.79625 2.8391-0.27971 27.07 0.99434 46.81l1.2238 19.428 3.5184 16.445c3.995 18.609 9.3623 49.938 12.85 75.187 1.2943 9.3718 3.6247 25.744 5.1246 36.408 1.5 10.664 3.07 22.086 3.5184 25.317 1.2624 9.0977 2.7159 32.972 2.2946 37.555-0.49246 5.3578-4.1602 35.21-5.3541 43.521-0.80159 5.5805-2.6654 14.219-8.4136 38.702-0.67745 2.8852-1.1589 5.6753-1.0708 6.1955 0.0881 0.5201-0.83544 2.1532-1.9887 3.5949-1.1533 1.4418-3.8114 5.1343-5.966 8.2606-2.1546 3.1264-4.6241 6.2494-5.4306 6.8838-0.80649 0.6345-4.0366 2.2159-7.1898 3.595-12.004 5.249-29.334 14.089-31.589 16.062-2.2806 1.9958-2.3576 2.1427-2.2181 5.4305 0.20046 4.7239 2.2247 8.0526 5.5836 9.2551 7.4728 2.6751 10.723 2.8764 24.323 1.3002 19.088-2.2124 20.125-2.6086 29.295-9.4843 2.9082-2.1812 6.758-4.5541 8.4901-5.3542 2.9354-1.356 3.3165-1.4407 5.5836-0.6883 1.6798 0.5573 5.4926 0.8413 12.391 0.8413 9.6433 0 10.112-0.084 13.232-1.6062 1.7772-0.8675 4.6476-2.1371 6.4249-2.8301 4.1388-1.6134 5.3345-2.6429 5.3541-4.8952 9e-3 -1.0001 0.90378-6.0899 1.9887-11.244 1.9948-9.4758 2.1741-9.925 5.2776-11.779 0.54094-0.3231 1.173-1.5779 1.4533-2.8301 0.28024-1.2507 0.87191-12.886 1.2238-25.853 0.60176-22.173 1.2267-43.71 2.3711-79.394 0.26945-8.4029 1.1505-22.405 1.9887-31.13 0.83812-8.725 1.8234-18.924 2.1416-22.64 0.31821-3.7162 0.83798-9.2445 1.1473-12.314 0.30936-3.0697 0.69928-10.883 0.91785-17.286 0.21833-6.4032 0.6179-11.43 0.84137-11.167 0.6535 0.771 12.865 36.803 20.805 61.343 7.2177 22.308 7.8821 25.107 9.1785 36.714 0.36102 3.2313 1.7218 12.063 2.983 19.657 1.269 7.6399 2.7113 19.044 3.2125 25.547 2.2243 28.858 3.305 41.752 3.5949 42.221 0.17182 0.278 0.6283 6.731 1.0708 14.38 0.84834 14.662 3.007 36.56 3.6714 37.249 0.21588 0.224 2.3951 0.4747 4.8187 0.5355 2.4236 0.061 4.7207 0.3681 5.1246 0.6883 0.50937 0.4039 0.76976 2.5794 0.76487 7.1134-5e-3 5.6598-0.23349 6.941-1.4533 9.5609-2.7974 6.008-8.3662 12.968-19.504 24.323-10.85 11.062-11.225 11.527-11.932 14.686-0.66278 2.9616-0.61912 3.5291 0.45892 5.966 0.65541 1.4814 1.7668 3.102 2.5241 3.5949 1.181 0.76855 13.49 3.33 19.887 4.1303 3.902 0.48812 11.004-0.24035 16.521-1.6827 8.4733-2.2153 16.442-4.8755 19.045-6.4249 3.177-1.8908 7.8727-6.524 12.391-12.238 3.5045-4.4317 3.8831-4.7802 6.119-4.8953 1.3132-0.068 2.9586-0.5484 3.6714-1.0708 0.71274-0.5223 2.7301-1.8435 4.4363-2.9829 3.945-2.6346 6.4253-6.0389 6.9603-9.561 0.2291-1.5082 0.068-6.5579-0.30595-11.244-0.52821-6.6205-1.0352-9.8125-2.4476-14.15l-1.8357-5.5835 0.0767-30.824c0.0428-16.967 0.30997-42.892 0.61189-57.595 0.30202-14.703 0.60456-35.002 0.6119-45.127 0.0147-20.134 0.0499-19.528-4.2068-33.884-0.95823-3.2316-2.687-11.562-3.8244-18.51-1.1374-6.9477-2.9534-17.503-4.0538-23.482-1.7155-9.3204-7.865-45.184-10.632-61.955-0.47792-2.8969-1.3862-6.7777-1.9887-8.5665-2.7535-8.1737-3.5149-17.93-2.2946-28.3 1.0167-8.6395 1.3684-9.607 3.9773-10.632l2.2181-0.8413-1.3768-11.091c-0.74835-6.1087-1.6185-17.485-1.9122-25.241-0.46553-12.294-0.94941-16.992-3.8244-36.714-1.8136-12.44-3.4023-25.298-3.5949-28.53l-0.38244-5.813 1.9122-2.3711c4.1058-5.0959 24.441-35.259 26.618-39.467 0.51748-1.0009 1.4742-6.0408 2.1416-11.167 0.66743-5.1262 1.3555-9.7562 1.5297-10.326 0.53843-1.7601 0.35552-11.338-0.30595-15.833-0.34572-2.3492-0.70992-7.8753-0.84136-12.238-0.21122-7.0075-2.8588-32.18-6.272-60.195-1.3481-11.066-7.1323-41.4-8.4901-44.363-0.51839-1.1311-2.0105-3.4599-3.2889-5.1246-2.0029-2.6079-3.293-3.4645-9.1785-6.3485-7.2449-3.5502-10.4-4.6294-35.261-12.238l-15.68-4.8187-3.8244-4.6658c-2.1047-2.566-6.6989-7.6621-10.173-11.32l-6.272-6.6544v-12.161l2.9065-6.119c4.1373-8.5096 5.4651-13.432 5.7365-21.722 0.18308-5.5925 0.0567-6.9801-0.68839-7.7252-0.67621-0.6763-1.0453-3.074-1.4532-9.3315-0.79449-12.186-2.3772-16.001-10.02-24.17-3.4817-3.7218-4.7285-4.4714-16.368-9.5609l-4.8952-2.1417z"/>
    <path d="m-105.38-1824.3c-2.0241 0.011-3.749 0.2641-6.5678 0.7121-8.3445 1.3267-11.476 2.8259-18.121 8.7835-5.6257 5.0441-7.5844 7.4651-8.3086 10.287-0.21472 0.8355-1.5937 3.0073-3.0069 4.7477-5.8977 7.2628-7.0515 12.795-6.3304 30.307 0.54972 13.352 1.7315 18.969 5.6974 27.695 2.7216 5.9888 3.271 7.5708 3.7191 10.762 0.50035 3.5614 2.2201 6.3988 5.9347 9.812l3.0069 2.8487 0.5539 6.6469 0.47478 6.5679-4.3521 4.2729c-4.8093 4.6775-8.5314 7.3059-23.343 16.222-5.4436 3.2769-12.2 7.4254-14.956 9.2582-5.3479 3.5575-18.317 15.087-20.811 18.516-3.3108 4.5528-3.8387 8.0757-6.093 37.745-0.19042 2.5073-0.76661 8.5253-1.2661 13.373-0.49938 4.8475-1.4309 15.399-2.0574 23.422-0.6265 8.0232-1.6992 19.91-2.3739 26.429-5.099 49.268-5.2297 52.564-5.0643 119.17 0.14333 57.784 0.15016 58.67 1.3452 59.664 1.1337 0.943 1.264 1.7232 1.2661 12.423 2e-3 13.251-0.29741 12.448 6.5678 19.782 3.974 4.2456 4.6728 4.7346 8.2295 5.6973 2.576 0.6974 5.3359 0.9504 8.1504 0.7913 4.4616-0.2519 5.8056-1.0641 11.157-6.4095 1.2552-1.2535 2.3693-1.6949 4.5895-1.82 2.3276-0.1311 3.2094-0.4642 4.3521-1.8199 0.78643-0.933 1.9-2.3339 2.5322-3.0861 0.63224-0.7522 1.8654-1.3452 2.6904-1.3452 1.2201 0 1.6412 0.441 2.1365 2.2948 1.3286 4.9731 4.3066 18.102 7.0426 31.098 1.5835 7.522 3.3663 14.656 3.9565 15.826 1.2658 2.5067 6.572 24.174 8.7834 35.846 0.85243 4.4985 2.1114 13.132 2.7696 19.149 0.65818 6.0178 1.711 14.786 2.3739 19.466 0.66291 4.6803 1.8963 13.668 2.7696 20.02l1.5826 11.553 2.6904 4.1148c3.076 4.6963 3.4271 7.1472 1.6617 12.661-0.79395 2.4798-1.0831 5.2129-1.0287 10.92 0.0688 7.2346 0.25068 8.1259 3.2443 18.516l3.1652 10.92-0.15825 10.05-0.15826 10.049 2.9278 8.2295c1.6046 4.5133 3.9755 10.063 5.3017 12.344l2.453 4.1148-0.94956 6.4886c-2.5523 17.624-1.6104 29.861 2.3739 30.861 1.1658 0.2924 1.3458 0.9008 1.6617 4.6687 0.2246 2.6785 0.103 4.7446-0.31652 5.539-1.0351 1.96-9.3473 10.37-14.639 14.797-5.6743 4.7471-7.9328 8.7202-8.546 14.797-0.33232 3.2935-0.17877 4.2112 0.7913 5.7766l1.1078 1.8991 8.3878 0.3957c4.6037 0.2205 15.577 0.3956 24.372 0.3956h15.984l2.1365-1.82c1.1658-1.0235 2.274-2.3634 2.453-2.9278 0.28816-0.9088 1.2192-0.9799 8.2295-0.7913l7.913 0.2373 1.2661-2.8487c0.96804-2.1881 1.4321-5.4731 2.1365-14.481l0.94956-11.711 2.1365-1.8201c1.7598-1.5084 2.1375-2.213 1.82-3.4026-0.21625-0.8105-0.1137-7.9119 0.23726-15.826 0.56037-12.619 0.54365-14.877-0.31652-18.516-0.53986-2.2825-1.1331-4.7463-1.2661-5.3809-0.13268-0.6342 0.31589-2.2684 1.0287-3.6399 1.1174-2.1495 1.3641-3.7471 1.5826-11.869l0.23726-9.4165-2.453-7.5965-2.453-7.5964 0.31652-11.553c0.31247-11.075 0.21802-12.147-1.8991-26.034-1.2139-7.9649-2.5604-18.516-3.0861-23.422-0.70875-6.6137-1.732-11.75-3.9565-19.862-1.6502-6.0176-3.2562-12.036-3.5608-13.373-0.57606-2.5272-1.4238-14.467-2.5322-36.796-0.59354-11.957-1.2979-20.534-3.8774-48.269-1.4102-15.163-2.0296-40.399-1.0287-41.227 0.8784-0.7264 1.8814 0.3452 1.8991 1.9783 0.01519 1.3623 6.5356 28.398 9.5747 39.802 2.1414 8.0361 3.1698 13.901 4.7478 26.192 2.9421 22.917 3.695 27.638 6.726 42.493 1.5114 7.4086 3.1442 17.57 3.64 22.79 1.7307 18.22 1.3218 16.464 4.5895 21.998 2.2762 3.8544 2.4567 4.367 3.0069 11.553 0.31652 4.1343 0.68482 8.4078 0.87043 9.4956 0.1851 1.0878 0.89613 7.1059 1.5826 13.373 1.8092 16.523 2.2461 20.484 2.2948 20.653 0.02279 0.083 1.0563 1.2403 2.2948 2.6112 1.8662 2.0657 2.4035 3.2515 3.0069 6.8051 0.48769 2.87 0.51681 5.5106 0.15826 7.9922-0.29474 2.0388-0.66684 8.2525-0.87043 13.769l-0.39565 9.9703 4.6687 4.9061c4.546 4.7419 4.6445 4.9342 4.273 7.2799-0.20941 1.3231-0.89258 3.6249-1.5826 5.1434-1.6884 3.716-1.5994 6.5258 0.55391 13.373 1.4902 4.7374 1.8909 7.1656 2.1365 13.531 0.35298 9.146 0.9788 10.841 4.3521 10.841h2.1365v7.4381c0 4.3088 0.27296 7.7113 0.63304 8.0714 0.6143 0.614 1.3839 4.638 2.1365 11.236 0.20966 1.8387 0.71901 3.5929 1.1869 3.9564 0.53454 0.4161 3.1984 0.6189 7.1217 0.4748 5.6356-0.2071 6.8204-0.073 12.028 1.5827l5.7765 1.8199 12.423-0.2373c10.851-0.2317 13.232-0.5077 18.042-1.8199 5.9797-1.6318 9.6955-3.4501 10.208-5.0644 0.80598-2.5392-0.91272-8.3299-4.3521-14.639-2.8507-5.2294-4.536-7.5416-9.0999-12.107-5.194-5.1949-5.6182-5.7737-5.6182-7.9921 0-2.2453 0.16738-2.4797 2.6113-3.5608l2.6113-1.187-1.1078-14.243c-0.57657-7.8548-1.4692-17.545-2.0574-21.523-0.90373-6.1126-1.0864-12.3-1.1869-40.04-0.12863-35.445-0.99298-49.758-3.4026-59.031-3.0561-11.761-6.8934-23.361-9.0999-27.379-2.3-4.1878-2.4635-5.001-5.3808-23.027-4.7718-29.487-8.541-78.809-8.546-112.21v-10.603l5.46-2.3739c3.8405-1.6449 6.1212-3.0359 7.5965-4.6687 1.1597-1.2835 2.1365-2.6593 2.1365-3.0069 0-1.1051 5.5064-6.5545 8.2295-8.1504 1.7761-1.0408 2.805-2.1424 3.2443-3.4817 0.63203-1.9269 1.9882-12.757 1.7409-14.006-0.06786-0.344 0.50795-0.9498 1.2661-1.3452 0.75813-0.3955 1.4774-0.9235 1.6617-1.1078 0.85511-0.8559 6.6427-43.236 9.0999-66.706 0.54264-5.1818 1.4984-13.95 2.1365-19.466 1.2476-10.784 2.6703-38.991 2.1365-42.493-0.17877-1.1727-0.83346-9.6394-1.5035-18.833-0.67026-9.1935-1.5287-19.011-1.8991-21.761-0.74572-5.5352-4.5257-17.438-17.883-56.894-8.371-24.726-9.9229-30.168-12.265-43.442-1.1081-6.2808-3.2051-10.302-6.726-12.661-2.5043-1.6786-26.397-10.495-48.823-18.042-23.88-8.0358-28.74-10.388-36.321-17.646-2.2106-2.1163-2.5322-2.7892-2.5322-4.906 0-2.6521 0.768-4.1159 4.273-7.9921 2.1926-2.425 2.1956-2.5942 2.5322-8.7042 0.24081-4.369 0.69634-6.6435 1.4243-7.7548 1.4448-2.2052 4.8496-12.65 6.0139-18.358 0.94247-4.6215 0.92348-5.0079-0.47478-12.028-0.79282-3.981-1.8975-8.109-2.453-9.1791-0.55556-1.0698-1.0287-2.536-1.0287-3.3234 0-1.279-2.1797-5.0455-3.4817-5.9347-0.27474-0.1879-3.0268-3.6774-6.093-7.7547-3.0664-4.0771-6.3227-7.8636-7.2008-8.4669-0.87815-0.6031-2.8386-2.4496-4.3521-4.0356-3.4154-3.5791-5.9211-4.3609-17.646-5.6182-3.946-0.4232-6.2054-0.6406-8.2295-0.6331z"/>
    <path d="m-1081.2-1040.3c-0.6111 0-0.4419 0.2689 0.4448 1.0379 0.6744 0.5849 1.1862 1.4464 1.1862 1.8535 0 0.4069 0.1613 0.5058 0.3707 0.2965 0.5883-0.5883-1.0509-3.1879-2.0017-3.1879z"/>
    <path d="m-1132-1039.7c-0.3132 0-0.5189 0.2615-0.5189 0.5931 0 0.3318 0.2057 0.416 0.5189 0.2223 0.3132-0.1936 0.5931-0.455 0.5931-0.5931 0-0.1383-0.2799-0.2223-0.5931-0.2223z"/>
    <path d="m-990.45-1039.4c-0.17366 0.041-0.35863 0.3202-0.51896 0.7414-0.30904 0.8116-0.26587 0.8548 0.29655 0.2965 0.38919-0.3863 0.62014-0.8625 0.44482-1.0379-0.0439-0.044-0.16464-0.014-0.22229 0z"/>
   </g>
   <g transform="translate(7519.9 215.58)">
    <g transform="matrix(-1 0 0 1 -28984 436.51)">
     <path d="m-13592 1054.3c-5.575 1.4197-10.473 13.101-10.473 13.101l1.744 16.739 7.771 16.291-1.244 13.152-5.332 28.696-11.417 28.225 24.55-0.5266 1.464-20.425 10.911-46.93 7.046-23.327-4.458-15.67s-12.992-11.254-20.562-9.3262zm129.62 95.054c-5.081-0.094-8.569 7.593-8.569 12.704 0 3.4677 1.312 6.5405 3.239 8.4693-0.787 1.5218-1.506 3.1286-2.193 4.7826-12.295 6.7394-19.549 24.018-23.863 42.247-5.555 23.476 5.691 20.046 9.615 27.152 2.053 3.7182-0.653 13.406-0.15 18.334-4.111-0.1836-7.821-0.3487-7.821-0.3487-0.05 0.4564-0.03 0.8607-0.05 1.2953-8.181-6.1566-10.494-2.8832-17.736-5.7292l-45.386-17.835-28.895-28.895-4.832-12.405 5.53-30.938-30.291-2.74-5.48 37.115-4.832 5.53-1.345 21.323 8.917 18.533 45.386 41.3 11.01 24.063 17.188 15.095 4.832 28.895-6.177 13.75-4.833 84.593-13.053 28.198 18.184 4.5335-0.1 2.3914h-1.494v28.447h1.146l-1.346 33.479 7.772 57.342 34.525 118.67 18.483 94.358 4.833 49.072 4.384 3.8859s1.049 9.3857 2.391 18.433l-6.526-1.1458s-3.64 12.985-8.519 17.038c-8.366 6.9503-20.483 8.2721-31.337 8.9675-4.827 0.3092-10.167-4.6241-14.348-2.1921-3.526 2.0509-4.773 7.3983-4.384 11.458 0.483 5.0367 8.021 12.853 8.021 12.853s59.327 1.2336 61.029 0.7473 42.795 1.943 42.795 1.943 14.998-0.9416 21.123-4.6332c3.096-1.8655 4.014-11.734 4.633-15.295 0.19-1.0944 0.179-2.1973 0-3.2881l6.178 1.5942c0.563 0.1438 1.701-0.8218 3.139-2.4909 5.201 1.0729 11.076 2.0156 14.995 1.7436 5.477-0.38 11.533 0.2968 16.291-2.4411 3.149-1.8116 6.074-4.9651 6.825-8.5191 0.919-4.3467-2.708-11.688-3.437-12.903l-0.797-0.2491 1.544-0.1992-1.943-10.213 10.213-29.194-14.099-10.213 1.943-38.859-18.483-56.446-15.294-33.728c-5.945-20.593-12.287-35.599-18.035-59.435l1.246-22.07 9.714-91.419-4.483-26.653h0.149v-4.434h1.246l-0.698-22.02 2.043-13.75 11.708 1.3949-4.833-6.8751 1.395-9.6151-14.448-23.415 4.833-6.8751 10.313-26.105 8.917-13.053-3.437-8.27 6.875-41.25 5.48-1.395 1.395-20.625-12.355-32.333-0.947 0.8967c-3.904-6.2564-11.736-17.556-19.131-19.629-12.083-5.0405-44.027-3.5719-38.909-7.0247 19.655 0 49.023-19.777 49.023-47.976s-28.671-63.769-48.325-63.769c-6.239 0-11.71 2.9793-16.241 7.9711-4.789-2.658 4.444-9.6905 1.245-11.16-0.786-0.3611-1.566-0.5346-2.291-0.548zm-73.334 341.11 1.245 0.299h-1.245z" color="#000000"/>
    </g>
    <path d="m-15590 1148.2c8.894-2.3553 17.887-4.3439 26.841-6.3186 15.006-3.3064 30.335-5.4418 45.712-6.1662 16.629-0.7826 33.171-0.01 49.738 1.1342l-0.999-7.5938 7.39-1.3978 1.831 1.1593 58.751 415.22-1.821 2.1378-7.464 0.6412-1.763-1.6304-28.745-207.73c-24.881-0.9073-50.107-1.686-74.441 4.3527-23.296 5.7865-46.889 10.893-69.601 18.552-6.237 2.1061-13.043 3.6915-18.085 8.2105-5.652 5.0653 0.179 6.7448 4.756 8.3342 5.232 1.8283 12.55 7.5866 9.335 13.707-5.068 9.64-16.716 13.41-25.659 18.943-8.508 5.2613-20.393 7.5956-24.975 17.271-2.874 6.0811 3.181 10.942 7.586 13.82 3.362 2.1945 6.676 12.533 2.945 11.473-9.031-2.56-15.065-13.7-17.815-23.503-2.514-8.9958-5.548-17.965-9.141-26.506-1.926-4.5982-5.076-8.1644-7.246-12.552-3.631-7.33-3.99-15.428-10.685-22.372s-12.128-15.976-20.619-24.79c-8.49-8.8129-19.595-21.663-19.052-36.209 0.522-14.012 10.5-24.946 20.761-33.483 5.702-4.7578 13.002-10.168 13.576-18.034 0.521-7.2107-6.298-11.191-11.378-14.81-5.221-3.7256-3.69-10.314-2.183-15.397 2.919-9.8514 9.376-18.599 15.965-26.504 6.61-7.9415 12.899-16.366 21.577-22.346 11.979-8.2621 25.382-13.661 38.725-19.079 8.492-3.4452 17.287-6.1811 26.183-8.5362z" fill-rule="evenodd"/>
   </g>
   <g transform="translate(7581.7 562.46)">
    <g transform="translate(-3600.2 -519.04)">
     <rect transform="translate(750.82 -629.37)" x="-13612" y="1990.9" width="288.06" height="180.04"/>
     <rect x="-12727" y="1351" width="20.907" height="432.08"/>
    </g>
    <path d="m-16320 1147.8c-5.575 1.4197-10.473 13.101-10.473 13.101l1.744 16.739 7.771 16.291-1.244 13.152-5.332 28.696-11.417 28.225 24.55-0.5266 1.464-20.425 10.911-46.93 7.046-23.327-4.458-15.67s-12.992-11.254-20.562-9.3262zm129.62 95.054c-5.081-0.094-8.569 7.593-8.569 12.704 0 3.4677 1.312 6.5405 3.239 8.4693-0.787 1.5218-1.506 3.1286-2.193 4.7826-12.295 6.7394-19.549 24.018-23.863 42.247-5.555 23.476 5.691 20.046 9.615 27.152 2.053 3.7182-0.653 13.406-0.15 18.334-4.111-0.1836-7.821-0.3487-7.821-0.3487-0.05 0.4564-0.03 0.8607-0.05 1.2953-8.181-6.1566-10.494-2.8832-17.736-5.7292l-45.386-17.835-28.895-28.895-4.832-12.405 5.53-30.938-30.291-2.74-5.48 37.115-4.832 5.53-1.345 21.323 8.917 18.533 45.386 41.3 11.01 24.063 17.188 15.095 4.832 28.895-6.177 13.75-4.833 84.593-13.053 28.198 18.184 4.5335-0.1 2.3914h-1.494v28.447h1.146l-1.346 33.479 7.772 57.342 34.525 118.67 18.483 94.358 4.833 49.072 4.384 3.8859s1.049 9.3857 2.391 18.433l-6.526-1.1458s-3.64 12.985-8.519 17.038c-8.366 6.9503-20.483 8.2721-31.337 8.9675-4.827 0.3092-10.167-4.6241-14.348-2.1921-3.526 2.0509-4.773 7.3983-4.384 11.458 0.483 5.0367 8.021 12.853 8.021 12.853s59.327 1.2336 61.029 0.7473 42.795 1.943 42.795 1.943 14.998-0.9416 21.123-4.6332c3.096-1.8655 4.014-11.734 4.633-15.295 0.19-1.0944 0.179-2.1973 0-3.2881l6.178 1.5942c0.563 0.1438 1.701-0.8218 3.139-2.4909 5.201 1.0729 11.076 2.0156 14.995 1.7436 5.477-0.38 11.533 0.2968 16.291-2.4411 3.149-1.8116 6.074-4.9651 6.825-8.5191 0.919-4.3467-2.708-11.688-3.437-12.903l-0.797-0.2491 1.544-0.1992-1.943-10.213 10.213-29.194-14.099-10.213 1.943-38.859-18.483-56.446-15.294-33.728c-5.945-20.593-12.287-35.599-18.035-59.435l1.246-22.07 9.714-91.419-4.483-26.653h0.149v-4.434h1.246l-0.698-22.02 2.043-13.75 11.708 1.3949-4.833-6.8751 1.395-9.6151-14.448-23.415 4.833-6.8751 10.313-26.105 8.917-13.053-3.437-8.27 6.875-41.25 5.48-1.395 1.395-20.625-12.355-32.333-0.947 0.8967c-3.904-6.2564-11.736-17.556-19.131-19.629-12.083-5.0405-44.027-3.5719-38.909-7.0247 19.655 0 49.023-19.777 49.023-47.976s-28.671-63.769-48.325-63.769c-6.239 0-11.71 2.9793-16.241 7.9711-4.789-2.658 4.444-9.6905 1.245-11.16-0.786-0.3611-1.566-0.5346-2.291-0.548zm-73.334 341.11 1.245 0.299h-1.245z" color="#000000"/>
   </g>
   <g transform="translate(6429.3 139.49)">
    <path d="m-15914 1587.5-1.859 4.5 0.25 5.8282-1.063 5.8125-1.593 3.1875-1.578 5.5781-1.594 5.8125-2.641-7.1563-1.328-1.5937h-3.187s-0.518 3.4408-0.266 4.25c0.265 0.7963 0.797 18.828 0.797 18.828l-0.797 3.9688 1.578 1.5781-0.25 14.062 0.516 3.9531 4 13 1.843 12.719 0.36 10.75c3.384 10.839 11.25 31.031 11.25 31.031l17.672 34.688 0.406 0.6563 12.437 20.141 6.125 5.2969 1.86 4.25 22.5 16.688 6.375 6.9062 13.25 4.7813 3.437 5.8125 5.844 3.4531-3.984 15.078-0.532 10.875 1.063 31.828 2.125 12.969-9.813 25.453-16.14 43.734 2.875 1.625 13.094 44.75-5.125 35.781-1.329 20.422 27.047 16.422 0.688 13.375-1.938 4.0937v7.7344l2.782 51.453-1.938 63.719-1.047 32.484-1.094 18.297 9.235 79-2.766 4.2969-3.015 8.8438-1.5 9.6562 4.093 4.7656 5.141 1.2657 0.234 1.5156-3.234 3.6719-3.656 0.4218-3.032 6.0313-3.859 8.6094 1.094 0.6562-7.188 8.375-5.578 5.3125s-15.615 3.8125-16.5 3.8125c-0.872 0-13.484 4.125-13.484 4.125l-6.203 1.7656-0.875 4.7032-2.063-0.2969v2.3594l10.594 2.3437 8.25 2.9531 19.094 2.3282 19.718-1.4532 5.594-4.1093 14.11-6.7657 5.578-1.4843 2.078 10.016 14.422 0.5781 10.281-0.2812 4.125-6.4844 4.687-8.8125 0.735-3.6406 2.578-0.078-0.219-13.531-1.109-2.8281 1.984-3.4375 8.156-30.797 5.172-47.328 11.844 29.906 22.578 43.469 2.36 4.1093 13.156 1.2813-2.391 4.5312-3.625 1.5-4.953 10.766v3.2187l14.391 6.0313-11.516-4.8125c-1.617 2.3769-3.73 5.3015-4.375 5.4531-1.214 0.2909-10.937 5.2969-10.937 5.2969l-10.86 7.3593-14.406 1.4532-3.828 3.5312-3.547 4.1406-2.641 2.3438 6.453 2.3437 17.094 6.1875 20.875 0.2813 20.891 0.5937 9.719-4.1093 7.328-4.125 3.531 2.0625 9.703 1.1718 11.5-3.5312 4.984-5.3125 6.188-11.75-0.5-11.375 3.109-1.0781-0.656-16.797-0.828-0.4219-0.219-7.75-0.875-9.8906s-5.589-14.653-6.031-15.5c-0.43-0.8725-4.313-5.625-4.313-5.625s-1.081-7.9459-0.828-8.5781c0.164-0.6575-0.875-11.406-0.875-11.406l-7.75-20.031-7.968-33.797-6.454-37.875-8.843-16.594-4.5-10.734-11.61-15.5-1.297-7.1094-3.234-27.984-5.812-27.125 0.64-9.6719-3.656-19.375 1.281-6.2343 3.031-13.797 0.11-2.0313 2.656 4.1407 4.531 6.0937 2.25-0.6719 1.063-1.7656-3.141-5.25-2.297-6.7969-0.25-5.4062 1.188 1.2344 3.625 7.9687s2.608 4.3982 2.937 4.8281c0.329 0.4426 4.178 3.063 5.266 2.7344 1.112-0.3288 2.625-0.625 2.625-0.625l-1.203-3.8437-4.938-6.6875-3.484-9.75s-0.21-1.2268 0.422-2.125c0.67-0.8466 2.094-0.9688 2.094-0.9688l0.328 2.1094 2.531 7.6562s5.544 8.3036 6 8.5313c0.454 0.2402 2.969 1.8594 2.969 1.8594s2.162-1.5054 2.39-1.8594c0.253-0.3288 1.016-1.5313 1.016-1.5313l-1.891-2.2812-3.922-6.8125s-3.057-8.7626-3.296-9.0781c-0.229-0.3415 0.25-1.5313 0.25-1.5313l2.156-0.6562 2.75 4.2656s4.497 6.5579 4.812 7c0.317 0.4298 2.085 0.7969 2.516 0.7969 0.455 0 1.203-0.9994 1.203-1.3282 0-0.3414 0.126-3.8563 0-4.1718-0.113-0.3415-3.484-7.25-3.484-7.25l-2.11-5.5625s-0.348-4.1483-0.5-6.5l0.313 0.078 2.64-0.5469 1.344-22-1.609-23.297 2.406-29.953-0.281-28.359 0.281-13.781 2.922-7.1719-4.781-25.422-7.141-26.25-5.328-6.375-3.984-5.0156 0.562-13.531-2.656-12.453-5.297-7.1718-4.531-13.5-5.578-10.609-6.61-9.5313-3.422-12.453-2.656-2.9375-3.187-8.75-7.454-5.8125-0.765-6.3281-4.516-6.1406-2.64-4.5-2.282-0.8907 1.125-2.0781 2.75-1.2656 8.75-8.5 7.953-18.266 1.579-13.516-1.579-20.141-3.734-11.641-9-12.203-8.734-3.7188-12.453-1.8281-8.219-2.6719-8.485 1.3125-15.125 3.9688-7.406 1.0625s-2.92-1.3255-3.969-0.7813c-1.062 0.5184-6.906 4.7656-6.906 4.7656s-1.325 4.4998-1.047 5.2969c0.242 0.7713 0.25 4.7969 0.25 4.7969l2.657 3.1406 0.515 3.1875-0.515 2.375-3.438 6.9063-5.047 6.1093-0.781 3.4219 1.062 5.8438 0.266 6.3593-1.047 1.8594-3.203 5.5469 0.266 7.7031 1.593 5.5625 2.891 13.516-1.312 7.9375 0.265 3.4532 3.719 2.9218s0.789-0.1257 2.078-0.3281l2.156-4.7187-2.64 5.8281-4.266-0.7813-3.937 1.8438-6.125-2.6406s-0.516-3.4382-1.313-3.7032c-0.797-0.2782-5.035-0.8122-6.109-0.2812-1.037 0.5436-5.828 2.3906-5.828 2.3906l-3.172-5.0156-6.625-4.7813s-4.25-1.8596-4.25-1.0625c0 0.7839-0.532-2.9062-0.532-2.9062s-0.516-4.7942-1.312-5.5781c-0.81-0.7839-11.938-15.625-11.938-15.625l-26.25-40.797-2.359-2.125h-0.03l-4.5-9.8125-3.672-9.5625-1.484-0.8125-0.922-6.625-3.188-3.4063-2.39-6.8906-1.329-11.391s-2.113-8.2474-2.921-9.0313c-0.81-0.7965-2.375-6.625-2.375-6.625l2.375-4.7656-2.11-1.0625-3.437 2.375-1.047 2.3906-3.172-7.1562-1.609-15.641 1.609-9.5313-2.156-5.0312-1.313 1.0625-1.609-4.7657h-3.938z"/>
    <path d="m-15806 1201.4-52.942 194.19c-73.047 6.2367-105.96-3.1912-144.84-28.082-0.113 0.058-0.204 0.1292-0.319 0.1823-97.6 8.4855-157.87-10.498-206.56-27.309-37.627-128.06 62.798-118.28 0.942-182.32l196.63 28.465c21.615-15.364 156.18-0.407 207.08 14.877zm0.692 3.0624-113.26 468.44-16.133-4.3984 129.39-464.04z"/>
   </g>
   <g transform="translate(7628.4 -1544.2)">
    <path d="m-15030 3287.2c-2.477 0.4882-4.336 2.4276-7.15 2.8016-1.715 0.2227-3.504-0.6276-5.216-0.3864-2.56 0.3555-3.607 2.4753-5.604 3.3815-6.659-2.7763-9.631 3.6681-14.782 4.4438-3.71 6.4862-1.273 14.95 0.1 22.704 0.483 2.702 0.464 5.5145 1.45 8.0189 0.695 1.7279 2.433 3.7306 3.574 5.7 1.889 3.2244 3.158 5.878 5.121 7.8256-0.745 14.076 0.402 26.575 1.545 39.031 1.259 13.686 4.484 26.522 4.735 40.191 0.167 8.8759 0.02 19.246 1.545 28.693-2.488-0.5719-3.862-0.4931-6.376-0.9661-17.263 2.3682-29.484 9.4006-39.708 17.68-0.655-0.7637-1.591-1.432-2.608-1.6423-0.857-0.1855-3.561-0.5358-4.927-0.4829-7.361 0.278-16.781 2.2127-22.028 5.3135-1.307-4.5538-8.998-3.849-11.786-0.7729 0.17-2.4238-1.583-2.4954-2.995-3.5747-1.28-0.986-1.614-1.8619-2.319-2.0288-3.153-0.7264-4.67 1.3943-7.149 2.3187-0.121-0.4049-0.333-1.9378-0.966-2.6086 4.077-9.1384 6.942-20.262 10.627-29.37 1.184 0.3092 2.028 1.0072 3.478 1.0628 0.971-0.7326 2.995-1.1942 4.154-2.415 2.121-2.2201 5.817-11.707 5.604-14.879-0.244-3.4281-2.742-5.5106-4.541-7.9218 1.199-2.7858 1.617-6.3339 2.319-9.5647-0.03-0.7759-0.894-0.6576-1.256-1.0629 0.726-3.4499 0.206-7.2193-0.87-10.917-3.626-12.4-16.527-24.06-26.278-28.79-1.41-0.6801-4.335-1.9338-5.507-2.1255-2.022-0.3276-6.363 0.6981-8.598 1.4494-3.994 1.3384-8.622 3.9671-12.657 6.666-4.859 3.2369-9.505 7.9184-12.269 12.463-4.588 7.528-4.739 16.557-6.473 24.926-3.246 0.3058-4.577 3.3581-5.217 6.2797-1.289 5.9172-1.007 13.02 0.869 17.197 1.061 0.4514 2.052 0.9683 2.899 1.6426-0.913 5.1194 0.619 12-0.29 18.356-0.149 1.048-0.89 1.913-1.063 2.9951-0.912 5.302 0.173 10.514-4.734 12.753-4.888-0.745-7.487 5.2504-9.565 8.9847-1.094-2.8411-4.399-4.6796-8.115-3.7677-1.203-2.6834-4.497-3.175-6.473-5.0237-1.054 0-2.325 0.7939-3.091 1.8355-12.908-3.3974-30.363-5.9804-46.374-2.5117-12.038-10.277-27.686-13.359-44.248-15.071-3.487-0.3465-6.42-1.2784-8.695-3.6715 0.485-4.5814 2.364-9.6463 2.995-14.781 0.603-4.9929 0.283-10.844 0.58-16.134 0.574-10.084 1.566-19.251 4.927-27.438 2.594-6.3192 4.635-11.882 6.28-19.515 0.615-2.8658 1.625-5.1205 2.608-7.8257 2.177-6.0502 4.887-12.667 8.019-17.487 3.258-5.0018 6.357-9.5758 6.376-17.196 0.315 0.2778 0.625 0.3802 0.87 0.3863 0.232-0.4733 0.442-0.8748 0.772-1.1592-0.123 0-0.149 0.021-0.193-0.097 2.628-6.9777 9.471-17.093 4.058-25.506-2.155-0.1177-3.218-2.5639-5.797-1.2562-2.328-3.9139-9.496-1.4159-12.946-1.5458-3.141-4.47-10.417-5.6087-14.491-1.2557-0.384-0.053-0.636-0.2096-0.966-0.2899-0.634-0.1733-1.242-0.3046-2.126-0.193-7.077 7.0484-0.767 19.695-3.478 28.887 1.119 3.8336 1.034 8.4208 0.193 12.27 0.631 0.6156 1.177 1.3201 1.449 2.3187-3.589 13.148-9.103 26.398-16.037 37.292-5.206 13.133-13.234 23.71-19.612 35.746-1.054 6.9718-4.426 11.808-5.99 18.26-0.671 2.7454-0.716 6.309-1.739 9.5644-0.94 2.9713-2.802 6.0356-3.961 9.3715-1.351 3.8769-3.355 9.2685-3.961 12.753-0.745 4.186 1.905 7.164 3.188 10.531 1.632 4.2536 5.88 5.8003 10.048 8.5982 3.412 2.2878 6.589 4.7055 9.467 6.5696 6.922 4.4828 14.113 7.9231 20.772 11.111 7.179 3.4189 14.945 6.1459 22.124 9.6611 3.682 1.7927 6.985 3.9352 10.531 5.4103 8.804 3.6541 19.91 4.172 28.693 7.1489 2.971 4.4426 7.341 7.497 11.014 11.207-0.661 7.9055 3.83 13.428 6.087 19.902 0.123 0.3583-0.324 1.0069-0.194 1.449 0.106 0.4142 0.79 0.4545 0.87 0.7729 1.811 6.6746 1.059 12.618 0.966 20.675-0.04 2.7175 0.686 5.8245 0.773 8.8883 0.408 13.931 3.026 29.824 1.449 43.958 1.963 16.781-0.207 33.95-2.319 52.75-1.082 9.6209-1.001 19.797-2.608 28.791-0.792 4.4085-3.031 9.6494-0.483 12.076 0.318 0.2905 3.497 1.691 4.734 1.9322 1.431 0.2751 3.249-0.8585 4.25 0.097-0.89 4.5726-1.705 8.6764-2.994 13.333-1.299 4.659-1.723 9.0852-2.416 14.202-1.329 9.9456-3.131 19.866-3.091 30.046 0.02 5.8681 0.909 11.819 0.869 17.776-0.06 7.7598-0.171 15.201-0.966 22.8-0.293 2.8599-0.768 5.6987-1.256 8.5986-0.936 5.3823-0.607 11.299-0.869 17.293-0.26 6.1063-0.796 12.227-0.87 18.163-0.223 16.33-0.851 30.594 2.222 43.668 0.133 0.5627 0.251 1.1046 0.387 1.6426-0.223 1.082 0.06 1.3396-0.194 2.0289 2.709 7.9729 6.856 14.29 7.923 23.283-2.155 7.0798-0.33 14.342 2.125 20.965-1.008 3.679 2.386 7.2955 3.768 11.11 1.923 5.2866 2.741 12.655 2.608 19.129-0.126 5.265-0.732 10.216-0.386 15.264 0.717 10.314 6.124 18.513 8.405 27.921-1.203 1.419-0.603 3.0585-0.483 4.3476-0.494 1.1037-1.557 1.5845-1.835 2.8983 1.412 3.2369 1.703 7.6586 3.478 10.531-2.69 2.1888-3.544 5.4088-4.251 8.6954-0.532 2.5258-0.951 5.1289-2.126 7.3425-0.813 1.5396-2.223 2.7041-3.091 4.154-4.851 8.1248-4.941 18.469-11.207 25.892-2.545 8.2978-8.644 16.713-6.956 25.892 0.615 3.3637 3.085 6.3547 5.41 7.5357 6.427 3.2307 16.372 2.9952 24.249 2.9952 8.014-4.1833 15.246-7.7083 19.033-15.555 1.843-3.8242 2.735-8.3095 4.831-12.27 2.414-4.5786 7.983-7.6711 11.69-11.304 3.103-3.0268 5.041-6.7808 9.178-9.7581 0.5-1.3012 0.776-2.8185 1.642-3.7676-0.652-3.8336 0.422-7.5991 0.193-11.207-0.191-3.0018-0.435-5.0221 0.1-7.5355 0.321-1.5582 0.676-3.0072 1.063-4.5409l-2.126-0.5795 2.126 0.483c2.083-8.069 4.929-15.572 6.666-23.187-0.504-0.368-0.861-0.9569-0.966-1.739 1.128-16.2 0.267-34.33-0.966-49.658-0.68-8.409-0.03-16.891-0.773-25.022-0.359-3.7312-1.409-7.2189-2.126-10.821-0.639-3.2029-0.09-6.3089-0.289-9.5643-0.291-4.6714-1.512-9.5963-1.933-14.299-0.433-4.9959-0.637-9.8281-1.256-14.298-0.392-2.8041-1.368-5.8137-1.449-8.3086h-0.1c-0.04-1.0728 0.15-2.0637 0.58-2.8983-2.798-15.532 1.796-31.901 4.251-46.663 2.677-3.4999 3.414-9.8003 3.285-15.072 2.983-4.2879 0.458-9.676 2.415-14.202 1.518-3.543 4.556-5.9451 5.7-9.6612 1.06-3.4254 0.668-6.1745 3.478-7.8253 3.58 7.2095 7.054 13.79 10.241 21.158 1.147 2.6526 1.673 5.4335 2.802 8.3086 1.27 3.1813 3.6 5.9235 4.927 9.2748 1.255 3.2089 2.496 6.9786 3.188 10.53 0.26 1.3108-0.144 2.6543 0.1 4.0579 0.489 2.9832 1.762 5.9783 2.319 9.178 2.17 12.586 5.721 26.851 6.377 37.969 1.131 7.4348 4.98 16.2 4.25 23.187-0.176 1.6014-1.268 2.7861-1.642 4.3473-0.807 3.2987-0.666 6.9498-1.643 10.434-1.245 4.4517-2.673 9.1696-3.381 12.753-1.11 5.5369-1.4 11.763-1.449 17.294-0.06 5.7349-0.258 11.778 0.579 16.907 1.426 8.777 3.193 17.338 5.991 25.989 1.165 3.5893 1.902 6.4234 1.738 10.337-1.82 3.1842-4.033 5.8508-4.927 9.0815-2.556 9.3396 3.691 19.874 5.314 29.177 1.348 0.8501 3.083 0.218 4.347 0.966 0.205 4.3716 0.275 8.3967 0.677 12.366 2.958 4.0561 7.208 6.4505 11.787 10.241 1.684 1.3819 3.514 2.8859 5.313 4.4441 1.778 1.555 4.061 2.8798 5.603 4.4441 4.996 5.0239 6.392 13.149 10.628 18.646 4.433 5.7534 10.693 7.9011 17.293 10.337 4.201 0.1794 8.447-0.3747 13.236-0.097 4.13-1.9721 8.76-2.0076 12.56-4.4438 1.267-2.736 4.032-3.9566 5.506-6.4731-0.59-1.4716-0.962-3.7696-0.483-5.5067-2.325-4.6253-2.391-10.112-4.444-14.202-0.733-1.4779-2.292-2.8537-3.285-4.2511-3.335-4.7454-6.404-9.0016-9.081-13.816-3.623-6.4985-7.962-12.488-9.854-20.675-1.308-1.997-4.258-5.4945-4.251-8.2121 0-2.5721 2.902-4.7671 1.449-7.7288 4.198-10.629 6.695-20.471 6.473-31.882-0.06-3.4471-1.49-6.633-2.319-10.241-2.943-12.938-4.042-28.102-3.671-42.799 0.104-4.2015-0.03-8.4063 0.193-12.366 0.346-6.2575 1.701-12.434 1.643-18.453-0.05-5.2742 1.042-10.536 1.255-15.844 0.282-6.7766-0.47-13.815-0.386-20.675 0.1-7.5528 1.273-14.992 1.063-22.124-0.112-3.3663-0.74-6.6406-0.87-10.048-0.07-2.1824 0.398-4.4217 0.29-6.6661-0.253-5.3639-2.155-11.026-3.092-16.81-2.565-15.906-3.395-30.314-5.12-42.992-0.414-3.0019-1.675-5.7386-2.222-8.5982-0.693-3.543-0.413-7.2019-0.966-10.627-1.178-7.4137-3.212-14.579-4.154-21.158-0.538-3.741-0.341-7.5983-1.16-11.11-1.586-6.8942-5.477-12.671-8.405-18.743 0.98-1.3912 2.841-2.195 3.091-3.8645 0.254-1.6013-1.314-3.3394-1.642-5.1205-1.184-6.5078-0.836-14.792-1.642-23.476-0.708-7.5681-1.021-15.826-1.546-23.573-0.739-10.595 0.521-19.894-0.966-28.984-0.733-4.4857-2.801-8.4795-1.546-12.269-0.702-0.6713-0.687-1.0088-0.869-2.0289-1.203-6.8727 0.379-16.356 1.449-24.443 0.38-2.8347 0.331-5.904 0.869-8.4051 0.653-3.005 1.748-5.5972 2.029-8.695 0.3-3.1503 0.4-5.9689-0.29-9.1783 0.758-0.5653-0.635 0.3914-0.579-0.5793 3.134-7.0739 7.432-15.016 9.661-22.414 0.869-2.8969 0.949-5.9624 2.028-8.6954 1.432-3.6354 4.044-6.72 5.701-9.9508 2.291-0.2412 3.882-2.2331 5.7-2.802 2.071-0.6551 4.227-0.1367 6.28-0.4828 2.028-0.3555 4.74-1.5232 7.149-2.2222 6.934-2.0466 12.32-4.2432 17.003-7.1489 1.339-0.8506 2.886-1.1309 3.962-1.8359 5.017-3.3481 8.822-8.7569 13.428-12.559 4.409-3.6295 10.018-5.8345 14.396-9.3716 2.17-1.7807 4.206-3.7189 6.376-5.4101 2.275-1.7867 5.139-3.1903 7.053-5.0239 2.133-2.0525 3.454-5.182 5.507-7.439-0.248-1.9476 0.534-3.734 0.676-5.7001 0.402-5.5646-1.356-9.8489-2.222-14.588l0.1-0.097c-1.441-7.834-1.403-15.794-2.222-24.346-1.027-10.842-3.738-21.145-6.184-31.109-1.146-4.7084-2.432-9.2302-4.154-13.719-0.868-2.2816-1.782-4.6071-2.512-7.0526-2.64-8.7923-3.028-18.404-4.057-26.665-0.371-2.9897-1.692-5.8395-2.029-8.7919-0.108-0.9952 0.245-2.2543 0.193-3.188-0.182-3.4719-2.173-8.7977 1.16-10.724-1.009-8.8821 12.996-27.118-3.575-28.887-1.481-1.9847-3.691-3.159-6.087-4.1541zm-265.78 10.24c0.02 0.015 0.07-0.015 0.1 0 0.05 0.5164 0.116 0.9491 0.29 1.353-0.173-0.4039-0.334-0.8366-0.386-1.353zm0.966 2.4155c0.423 0.6588 0.894 1.2437 0.966 1.8355-0.07-0.5918-0.543-1.1767-0.966-1.8355zm-7.729 23.863c-0.872 2.4769-1.561 5.332-2.608 7.9225-0.698 1.7266-1.611 3.2909-2.705 4.6374 1.094-1.3465 2.007-2.9108 2.705-4.6374 1.047-2.5905 1.736-5.4456 2.608-7.9225zm265.3 10.628c0.04 0.025 0.06 0.071 0.1 0.097-0.06 0.1743-0.264 0.2566-0.387 0.3864 0.138-0.148 0.221-0.2776 0.29-0.4829zm14.298 8.1153c0.243 1.5171 0.47 3.0413 0.58 4.6374 0.08 1.0781 0.155 2.1246 0.29 3.1881-0.134-1.0635-0.312-2.11-0.387-3.1881-0.109-1.5961-0.24-3.1203-0.483-4.6374zm-293.51 9.0812c-0.06 0.8002-0.23 1.5335-0.483 2.3187 0.253-0.7852 0.426-1.5185 0.483-2.3187zm157.19 7.5361c0.495-0.019 1.046 0.044 1.546 0.097-1.001-0.1045-2.024-0.059-2.995 0.097 0.486-0.078 0.955-0.1739 1.449-0.193zm-12.849 4.6373c-2.385 1.164-4.789 2.5082-7.053 4.0573 2.264-1.5491 4.668-2.8933 7.053-4.0573zm12.463 18.163c0.01-0.019 0.08 0.018 0.1 0-0.244 0.3035-0.391 0.7123-0.484 1.1592 0.09-0.4469 0.14-0.8557 0.387-1.1592zm-6.473 5.4102c-0.27 0.7849-0.787 1.6001-1.256 2.4151 0.469-0.815 0.986-1.6308 1.256-2.4151zm-27.631 4.1541c-0.545 2.8328-0.971 5.7949-1.546 8.5987-0.383 1.8688-0.848 3.6424-1.546 5.2166 0.698-1.5742 1.163-3.3478 1.546-5.2166 0.575-2.8038 1.001-5.7659 1.546-8.5987zm29.466 4.7342c-0.04 0.1922-0.02 0.4003 0 0.5793 0.04 0.4344 0.169 0.7785 0.29 1.1593-0.12-0.3808-0.348-0.7249-0.386-1.1593-0.02-0.179 0.05-0.3871 0.1-0.5793zm5.314 0.3864c0.295 0.4705 0.605 0.9311 0.773 1.449 0.119 0.3546 0.15 0.6895 0.193 1.0626-0.04-0.3731-0.17-0.708-0.29-1.0626-0.168-0.5179-0.381-0.9782-0.676-1.449zm-15.651 2.9948c0.4 0.1309 0.999 0.1059 1.353 0.2897-0.354-0.1837-0.953-0.1587-1.353-0.2897zm-4.251 1.3525c0.316 0 0.571 0.073 0.773 0.1933-0.207-0.091-0.467-0.1933-0.773-0.1933zm20.578 0.483c-0.144 0.3701-0.426 0.7881-0.676 1.1593 0.274-0.3942 0.523-0.7661 0.676-1.1593zm3.092 1.6424c-0.232 1.4701 0.431 3.4142 1.642 4.4443-1.21-1.0295-1.897-2.9627-1.642-4.4443zm141.25 2.9949h0.1c1.41 3.305 2.693 6.8157 3.671 10.434-0.978-3.6183-2.358-7.129-3.768-10.434zm-138.25 2.1258h0.1l2.029 2.5115-2.126-2.5115zm-47.05 1.1593c-0.164 0.1235-0.386 0.2906-0.58 0.3865v-0.097c0.194-0.096 0.415-0.1657 0.58-0.2897zm32.462 0.7729c0.03 0 0.07-0.015 0.1 0-0.04 0.1744 0 0.2533 0 0.3865 0-0.1368-0.133-0.2066-0.1-0.3865zm-8.599 0.4829c-0.904 0.2395-1.945 0.9164-2.995 1.3526 1.05-0.4365 2.089-1.1145 2.995-1.3526zm8.985 0.6765c0.322 0.2003 0.797 0.3221 1.16 0.4829-0.382-0.1725-0.832-0.2449-1.16-0.4829zm159.8 7.8253c0.891 7.6819 1.432 15.053 2.513 22.414 0.359 2.4539 0.85 4.8826 1.352 7.3425h-0.1c-0.495-2.4593-0.899-4.8894-1.256-7.3425-1.07-7.3592-1.677-14.739-2.512-22.414zm-123.47 5.6036c-0.08 0.221-0.02 0.5308 0.1 0.8695h-0.1c-0.109-0.3378-0.08-0.6489 0-0.8695zm0.483 6.8591c-0.02 0.015 0.01 0.084 0 0.097-0.268 0.2412-0.582 0.354-0.966 0.4833-0.769 0.2579-1.712 0.3005-2.608 0.097 0.896 0.204 1.839 0.1614 2.608-0.097 0.384-0.1294 0.698-0.3388 0.966-0.5801zm-8.502 2.9951c-0.179 0.1911-0.35 0.4088-0.869 0.2901v-0.097c0.465 0.1059 0.7-0.029 0.869-0.1933zm-53.619 3.8645c0.574 1.1897 0.829 2.468 0.869 3.6712-0.03-1.2035-0.305-2.4809-0.869-3.6712zm0.773 5.4103c-0.234 1.7944-0.855 3.633-1.546 5.3138 0.689-1.6808 1.308-3.5189 1.546-5.3138zm9.757 2.512c-0.158 1.0155-0.189 1.9523-0.1 2.705-0.03-0.015-0.07 0.015-0.1 0-0.09-0.7527 0.04-1.6895 0.194-2.705zm33.428 19.516c-0.131 0.439-0.05 0.7457 0.1 1.0628-0.151-0.3171-0.227-0.6238-0.1-1.0628zm-77.482 3.8645c0.497 2.6296-0.06 5.0679-1.063 7.4389 0.994-2.3444 1.531-4.8418 1.063-7.4389zm8.405 4.3473c0.03 1.2477-0.258 2.5861-0.773 3.8645 0.525-1.2725 0.786-2.6146 0.773-3.8645zm83.762 0.7729c0.507 2.0219 0.588 4.4698 0.773 6.8596-0.185-2.3898-0.266-4.8377-0.773-6.8596zm-1.739 0.3864c-0.216 2.1596-0.592 4.4393-1.062 6.7631 0.47-2.3238 0.846-4.6035 1.062-6.7631zm-82.893 4.0581c0.143 0.2294 0.127 0.4668 0.1 0.7729-0.09 0.9179-0.739 2.1296-0.869 2.9948 0.13-0.8652 0.781-2.0769 0.869-2.9948 0.03-0.2702-0.09-0.4641-0.193-0.6765 0.01-0.029 0.09-0.077 0.1-0.097zm105.5 9.8541c2.587 3.4173 5.483 6.7713 8.695 10.338-3.212-3.5662-6.108-6.9202-8.695-10.338zm12.173 21.448c1.296 1.3269 2.683 2.5369 4.251 3.5744 1.568 1.0377 3.312 1.8628 5.217 2.4152-1.905-0.5524-3.649-1.3775-5.217-2.4152-1.568-1.0375-2.955-2.2475-4.251-3.5744zm-166.75 1.3522c-1.159 0.1902-2.457 0.6379-3.768 1.1594 1.343-0.5352 2.586-0.9785 3.768-1.1594zm195.35 1.4493c-1.208 0.2892-2.385 0.6066-3.478 0.7729-1.04 0.1546-2.079 0.3114-3.091 0.483 1.012-0.1716 2.051-0.4252 3.091-0.5795 1.093-0.1662 2.27-0.3872 3.478-0.6764zm-16.907 5.5068h0.1c-0.472 0.8526-0.987 1.5965-1.545 2.4155 0.533-0.7822 0.993-1.6036 1.449-2.4155zm-173.22 5.7002c0.02-0.016 0.08 0.016 0.1 0-0.93 0.9526-1.823 1.8958-2.706 2.8983 0.868-0.9867 1.695-1.9616 2.609-2.8983zm166.17 9.7576c-0.08 0.5914-0.132 1.1681-0.289 1.7394-0.315 1.15-0.772 2.3007-1.256 3.4779 0.484-1.1772 0.844-2.3279 1.159-3.4779 0.158-0.5713 0.309-1.148 0.386-1.7394zm-4.83 12.173c-0.529 1.1182-0.948 2.1554-1.353 3.1881-0.07 0.1644-0.181 0.3919-0.193 0.5796 0.02-0.1877 0.03-0.4152 0.1-0.5796 0.405-1.0327 0.92-2.0699 1.45-3.1881zm-5.12 25.795c0.02 0.3078 0.113 0.6021 0.193 0.8697-0.507 1.7596-0.999 3.5747-1.449 5.5066 0.45-1.9319 0.845-3.747 1.352-5.5066-0.08-0.2676-0.07-0.5619-0.1-0.8697zm-2.029 55.165c0.672 4.5224 0.889 9.1792 0.966 13.816-0.08-4.6365-0.294-9.2933-0.966-13.816zm4.057 72.556c0.267 1.8735 0.68 3.6502 1.353 5.217 0.224 0.5223 0.484 0.9739 0.773 1.449-0.175 0.5071-0.443 1.1219-0.676 1.6426 0.233-0.5207 0.404-1.1355 0.579-1.6426-0.289-0.4751-0.452-0.9267-0.676-1.449-0.673-1.5668-1.086-3.3435-1.353-5.217zm-93.23 12.27c0.661 0.1236 1.453 0.2963 2.319 0.3864-0.819-0.084-1.597-0.1776-2.222-0.2899-0.267-0.041-0.459 9e-4 -0.58 0.097-0.12 0.096-0.245 0.2192-0.289 0.3864 0.05-0.1922 0.13-0.2949 0.289-0.3864 0.118-0.068 0.256-0.2285 0.483-0.1929zm61.252 2.5117c-0.558 0.1397-1.101 0.3403-1.642 0.5799-1.632-0.2544-3.127-0.448-4.541-0.4833 1.414 0.035 2.909 0.1324 4.541 0.3866 0.541-0.2396 1.084-0.3438 1.642-0.4832zm-120.18 0.8695c3.68 0.4323 7.441 0.6475 11.207 0.5798-3.764 0.065-7.53-0.1426-11.207-0.5798zm145.01 1.1595c0.04 1.4956-0.167 3.1932-0.193 4.6373 0.02-1.4441 0.232-3.1417 0.193-4.6373zm-134.77 1.3525c0.02 0.016-0.02 0.077 0 0.097-1.295 0.3558-2.261 0.3209-3.285 0.29-1.024-0.031-2.08-0.069-3.574 0.1931 1.494-0.2688 2.55-0.2222 3.574-0.1931 1.024 0.029 1.99-0.032 3.285-0.3865zm52.267 0.29c0.332-0.072 0.629-0.056 0.869 0-0.481-0.1132-1.258 0.2724-1.835 0.1928 0.288 0.04 0.634-0.1206 0.966-0.1928zm-44.055 4.1541c1.465 0.498 3.083 0.8088 4.831 1.0627 0.873 0.1264 1.811 0.2003 2.705 0.2898 2.19 0.2135 4.558 0.5706 6.762 0.7729-2.204-0.202-4.572-0.4612-6.762-0.6764-0.894-0.09-1.832-0.2597-2.705-0.3863-1.748-0.2533-3.367-0.5642-4.831-1.0627zm39.418 1.3525c0.155 1.102 0.176 2.2399 0.1 3.3817 0.08-1.1412 0.06-2.28-0.1-3.3817zm49.078 0.5798h0.1c0.05 0.9809 0.06 1.845 0 2.7051 0.06-0.8276-0.04-1.7652-0.1-2.7051zm-34.297 1.5458c0.03 1.5748 0.07 3.1299 0.1 4.5405-0.03-1.3964-0.07-2.9834-0.1-4.5405zm-10.917 0.1931c0.236 0.2076 0.488 0.4444 0.773 0.5797-0.308-0.1456-0.523-0.3499-0.773-0.5797zm-14.202 0.483c0.121 0.054 0.191 0.1133 0.29 0.1935-0.1-0.079-0.172-0.1383-0.29-0.1935zm59.223 2.029c-0.134 0.3471-0.331 0.5998-0.58 0.8697-0.249 0.2696-0.475 0.5975-0.869 0.7729 0.375-0.1773 0.631-0.5075 0.869-0.7729 0.235-0.2623 0.451-0.5364 0.58-0.8697zm-3.285 1.3525c0.03 6e-4 0.06 0 0.1 0-0.09 0.1353-0.236 0.3073-0.29 0.4829-0.05 0.1759-0.02 0.3466 0 0.5801h-0.1c-0.02-0.2354 0.04-0.4045 0.1-0.5801 0.05-0.1752 0.1-0.3468 0.194-0.4829zm-43.958 5.3138c0.592 0.4761 1.669 0.7275 2.802 0.8694-1.177-0.1475-2.221-0.3524-2.802-0.8694zm14.878 1.3523h0.1c-1.515 6.214-0.777 13.12-0.869 19.612 0.09-6.4954-0.739-13.41 0.773-19.612zm-25.022 57.098c1.27 0.024 2.735 0.015 3.864 0.3865 0.4 0.1324 0.657 0.3545 0.966 0.5797-0.297-0.2059-0.59-0.4548-0.966-0.5797-1.129-0.3747-2.594-0.3624-3.864-0.3865zm36.036 1.2558c0.03 0.015 0.07-0.015 0.1 0 1.148 1.9076 2.234 3.8706 3.381 5.8934-1.147-2.0231-2.33-3.9858-3.478-5.8934zm12.752 10.531c0 0.3834 0.1 0.776 0.1 1.1594h-0.1v-1.1594zm2.319 21.641c1.993 3.7665 4.43 7.3883 5.314 11.497 0.563 2.6279 0.708 4.8392 2.029 7.0529-0.114 0.5564-0.136 1.104-0.1 1.6426 0.119 1.6149 0.799 3.1966 1.159 4.4438 0.306 1.06 0.508 2.1359 0.773 3.285-0.265-1.1491-0.563-2.225-0.87-3.285-0.359-1.2472-0.944-2.8292-1.062-4.4438-0.04-0.5386-0.114-1.0868 0-1.6426-1.32-2.2137-1.37-4.4247-1.933-7.0529-0.883-4.1083-3.321-7.7301-5.313-11.497zm-107.53 2.5119c-0.291 2.4152-0.465 4.8879-0.482 7.3425 0.02-2.4846 0.184-4.8992 0.482-7.3425zm183.08 12.946 0.1 0.097c0.216 1.2088-0.878 1.1899-0.773 2.3187-0.217-1.268 0.893-1.2097 0.676-2.4155zm-183.66 50.238c0.211 3.7823 0.513 7.5178 0.869 11.4 0.06 0.1132 0.152 0.1681 0.29 0.1931-0.138-0.025-0.329 0.018-0.386-0.097-0.356-3.882-0.562-7.7143-0.773-11.497zm130.72 17.1c-0.502 1.6886-1.313 3.3411-1.932 5.0238 0.619-1.6827 1.429-3.3352 1.932-5.0238zm-3.961 0.2898c0.316 1.9498 0.591 3.8242 0.676 5.6034-0.08-1.7792-0.36-3.6536-0.676-5.6034zm-114.1 4.3476c0 2.3914-0.335 4.7387-0.773 7.0524 0.438-2.3137 0.773-4.661 0.773-7.0524zm115.35 2.898c-0.235 1.2771 0.139 2.6947-0.1 4.0581-0.714 4.2073-1.72 8.7544-2.802 13.332 1.082-4.5777 2.088-9.1248 2.802-13.332 0.235-1.3606-0.138-2.781 0.1-4.0581zm40.577 17.68c0.835 0.2937 1.613 0.7071 2.125 1.1594 0.513 0.4522 0.796 0.962 0.58 1.6423 0.214-0.6809-0.07-1.1881-0.58-1.6423-0.513-0.4542-1.291-0.8638-2.125-1.1594zm-35.553 3.4781c0.49 3.3604 0.496 6.3899 0.387 9.4679 0.108-3.078 0.103-6.1075-0.387-9.4679zm-124.05 3.9608c0.212 1.651 0.585 3.2737 1.062 4.8309-0.477-1.5572-0.85-3.1799-1.062-4.8309zm124.24 10.241c-0.07 1.6169-0.09 3.2297-0.1 5.0238 0 1.2388 0 2.4331 0.1 3.5744-0.09-1.1413-0.198-2.3356-0.193-3.5744 0.01-1.7941 0.119-3.4069 0.193-5.0238zm-12.463 1.6423c-0.245 2.0219-0.362 4.0004-0.29 5.7967-0.07-1.7963 0.04-3.7748 0.29-5.7967zm-0.193 11.69c-0.06 3.879-0.239 7.7279-0.1 11.69 0.07 1.9811 0.197 3.9618 0.483 5.9899-0.286-2.0281-0.411-4.0088-0.483-5.9899-0.143-3.9622 0.03-7.8111 0.1-11.69zm-103.86 0.29c0.855 2.7289 1.432 5.6223 1.642 8.7918-0.21-3.1695-0.787-6.0629-1.642-8.7918zm116.71 14.105c-0.292 3.115-0.523 6.2172-0.194 9.2746-0.34-3.0605-0.1-6.1561 0.194-9.2746zm-115.36 9.7579c-0.03 3.0272 0.05 6.0276 0.387 8.8883-0.325-2.8332-0.415-5.8935-0.387-8.8883zm0.387 8.9848c0.108 0.9202 0.316 1.8215 0.483 2.705 0.2 1.0543 0.403 2.0432 0.676 2.9951-0.263-0.9252-0.579-1.8763-0.773-2.8986-0.173-0.9142-0.275-1.8482-0.386-2.8015zm113.62 8.1153c0.604 0.6467 0.44 1.2224 0.193 1.9322 0.224-0.6764 0.387-1.3117-0.193-1.9322zm-4.638 3.0916c0.219 1.3421 0.46 2.6733 0.58 4.0576-0.02 0.038-0.07 0.059-0.1 0.097-0.12-1.418-0.259-2.7811-0.483-4.1544zm4.348 0.2899c-0.131 0.4459-0.154 0.9313-0.1 1.4492-0.558 0.7342-1.057 1.6035-1.449 2.4153 0.392-0.8122 0.794-1.6811 1.352-2.4153-0.06-0.5179 0.06-1.0033 0.194-1.4492zm-107.43 7.4391c0.883 3.1082 1.38 6.0365 1.546 9.0813-0.171-3.0111-0.673-6.0056-1.546-9.0813zm101.64 5.6034c-0.145 0.5344-0.288 1.0814-0.483 1.5458-0.266 0.65-0.64 1.4165-0.966 2.2219 0.326-0.8054 0.603-1.5719 0.87-2.2219 0.204-0.4879 0.428-0.9834 0.579-1.5458zm-2.415 6.3764c-0.422 1.3383-0.741 2.718-0.773 4.0576 0.03-1.3396 0.351-2.7193 0.773-4.0576zm-0.676 5.3138c0.162 1.1593 0.642 2.4274 1.159 3.6709-0.517-1.2438-0.997-2.5116-1.159-3.6709zm-72.845 11.4c-1.935 0.2906-3.916 0.5599-5.797 0.6764-0.02-0.038-0.08-0.056-0.1-0.097 1.909-0.1118 3.927-0.2852 5.893-0.5801zm-17.39 2.3187c0.719 0.3799 1.506 0.6808 2.415 0.8696-0.909-0.1888-1.696-0.4897-2.415-0.8696zm39.804 0.6764c-0.217 0.6492-0.402 1.3449-0.773 1.9323 0.334-0.6755 0.573-1.2862 0.773-1.9323zm-38.549 1.4493h0.1c0.359 0.6045 0.662 0.8772 0.87 1.2559-0.208-0.3787-0.608-0.6514-0.966-1.2559zm36.326 0.193c0.202-0.065 0.364-0.023 0.484 0-0.12-0.023-0.282 0.032-0.484 0.097-0.59 0.3835-1.317 0.7005-2.028 1.0624 0.711-0.3619 1.438-0.7752 2.028-1.1592zm-35.166 1.7393c0.01 0.2927 0.02 0.656-0.1 1.1593-0.02-0.016-0.08 0.015-0.1 0 0.113-0.5033 0.206-0.8666 0.192-1.1593zm131.49 0.3864c-1.44 0.096-2.616 0.482-3.767 0.9658 1.151-0.4838 2.327-0.8708 3.767-0.9658zm9.661 0c0.652 0 1.308 0.047 1.933 0.1929v0.097c-1.875-0.4371-3.93-0.1441-5.99 0.4832 1.373-0.418 2.753-0.7636 4.057-0.7729zm-6.086 1.449c-2.083 0.788-4.244 1.7223-6.28 2.4155-0.456 0.1548-0.905 0.3593-1.353 0.4828-0.198 0.038-0.492 0.062-0.676 0.097 0.661-0.156 1.351-0.3484 2.029-0.5793 2.036-0.6932 4.197-1.6274 6.28-2.4155zm-9.082 0.2897c-2.127 1.1637-3.918 2.6254-6.086 3.2852 2.168-0.6598 3.959-2.1215 6.086-3.2852zm-125.98 2.4155c1.042 0.3787 2.036 0.7926 2.995 1.2561-0.959-0.4635-1.953-0.781-2.995-1.1593 0.02-0.021-0.02-0.075 0-0.097zm136.8 0.097c0.874 0.018 1.716 0.1511 2.608 0.3864-3.567-0.9413-6.92 0.1382-10.24 1.2557 2.49-0.838 5.01-1.6968 7.632-1.6421zm-137.48 0.6761c-0.442 0.4145-0.93 0.6875-1.352 0.7729 0.422-0.085 0.91-0.3587 1.352-0.7729zm143.08 0.966c-1.05 0.3436-2.005 0.889-2.899 1.3527 0.894-0.4622 1.849-1.0088 2.899-1.3527zm-138.06 0.2901c0.421 0.2931 0.822 0.5843 1.16 0.9658 0.765 0.031 1.538 0.048 2.222 0-0.684 0.048-1.457 0.1265-2.222 0.097-0.338-0.3818-0.739-0.7695-1.16-1.0626zm144.72 5.6031c0.03 0.015 0.05-0.015 0.1 0 0.03 0.015-0.03 0.088 0 0.097-1.619 0.6662-3.366 1.1176-5.217 1.5458 1.82-0.4211 3.523-0.9932 5.12-1.6426zm-17.487 2.9952c-1.3 0.2492-2.651 0.7901-4.058 1.2558-0.938 0.3106-1.928 0.5723-2.898 0.6764-0.97 0.1044-1.908 0.054-2.899-0.29 0.991 0.3441 1.929 0.3933 2.899 0.29 0.97-0.1029 1.96-0.3667 2.898-0.6764 1.407-0.4643 2.758-1.0041 4.058-1.2558zm-99.124 3.8644c-0.85 0.7782-1.732 1.5653-2.608 2.3187 0.859-0.7388 1.774-1.5563 2.608-2.3187zm-42.412 0.5798c-0.311 0.1557-0.535 0.3799-0.773 0.5796 0.25-0.2205 0.436-0.4109 0.773-0.5796zm144.82 0.097c-1.684 0.4171-3.414 0.8362-5.12 1.0626 1.706-0.2264 3.436-0.6455 5.12-1.0626zm9.082 0.5794c-1.443 0.5435-2.727 1.317-3.961 2.2223 1.234-0.9053 2.518-1.6788 3.961-2.2223zm-146.27 0.8697c0.453 0.1045 0.893 0.1614 1.353 0.3864 0.01 0.021 0 0.072 0 0.097-0.46-0.225-0.9-0.379-1.353-0.4832zm-1.835 7.3425c0.509 0.2738 0.983 0.5496 1.449 0.8697-0.02 0.015 0.02 0.084 0 0.097-0.465-0.3202-0.94-0.6919-1.449-0.9661zm-4.445 0.4831c0.04 0.025 0.06 0.071 0.1 0.097-1.157 0.044-2.167 0.103-3.091 0.2901 0.895-0.1821 1.881-0.3386 2.995-0.3866zm166.08 0.193c-0.01 0.044 0.02 0.046 0 0.097-1.631 0.1-3.209 0.2105-4.734 0.3864 1.524-0.1781 3.103-0.3818 4.734-0.4832zm-22.511 2.7051c-1.47 0.3459-2.908 0.5837-4.251 0.5799 1.343 0 2.781-0.2343 4.251-0.5799zm17.197 1.5458c-2.672 0.5231-5.443 1.2947-8.115 1.6425 2.673-0.3478 5.444-1.1191 8.115-1.6425zm-14.395 1.256c1.154 0.4208 2.388 0.5726 3.671 0.5798-1.283 0-2.517-0.1596-3.671-0.5798zm-156.9 0.9662c0.45 0.3107 0.855 0.6576 1.352 0.8693-0.496-0.2117-0.999-0.4615-1.449-0.7728 0.02-0.035 0.07-0.062 0.1-0.097zm6.28 1.9323c1.741 0.1838 3.576 0.2853 5.313 0.6764-1.737-0.3911-3.573-0.4929-5.313-0.6764zm-6.957 2.8015c-1.381 0.1015-2.716 0.3138-3.768 0.6765 1.052-0.3625 2.387-0.5745 3.768-0.6765zm192.45 5.8935c0.07 0.2507 0.03 0.5212 0.1 0.7729-0.04 0.3147-0.194 0.605-0.29 0.8696 0.15-0.4566 0.255-1.0149 0.193-1.6425zm-43.379 2.2219c0.07 0.028 0.13 0.068 0.193 0.097 1.381 2.1162 3.028 4.5424 5.024 6.6663-2.03-2.1591-3.824-4.6218-5.217-6.7631zm-123.95 3.0916c-0.606 0.4754-1.325 0.9988-1.835 1.5457 0.02-0.02-0.02-0.076 0-0.096 0.51-0.5487 1.229-0.9741 1.835-1.4493zm-2.415 2.3186c-0.611 0.9052-1.114 1.9471-1.835 2.7052 0.721-0.7606 1.224-1.8006 1.835-2.7052zm141.83 0.8697c1.767 0.7413 3.636 1.2103 5.797 1.3526-2.161-0.1423-4.03-0.6113-5.797-1.3526zm-8.695 2.029c1.073 0.9639 2.254 1.8469 3.478 2.5116-1.251-0.6699-2.384-1.5291-3.478-2.5116zm-136.22 0.8693c-1.389 0.8657-3.148 1.3402-4.734 2.0287 1.586-0.6885 3.345-1.1627 4.734-2.0287zm-34.104 1.3526c-0.105 0.075-0.143 0.1567-0.29 0.1932 0.118-0.029 0.206-0.1332 0.29-0.1932zm176.61 1.2561c0.621 0.028 1.367 0.01 2.125 0.097-0.724-0.087-1.518-0.074-2.125-0.097zm21.93 0c-0.04 0.01-0.06 0.086-0.1 0.097-2.001 0.606-4.272 0.9924-6.666 1.2558 2.394-0.2634 4.761-0.7466 6.763-1.3522zm-197.09 5.4103c0.525 0.3372 0.993 0.6823 1.545 0.9658-0.551-0.2835-1.021-0.5321-1.545-0.8694-0.02-0.029 0.01-0.068 0-0.097zm28.404 0.5793c-2.96 1.3835-4.721 2.9413-7.343 3.6716-1.049 0.2918-2.254 0.4214-3.671 0.3864 1.417 0.035 2.622-0.095 3.671-0.3864 2.622-0.7303 4.383-2.2881 7.343-3.6716zm-25.119 1.1594c2.316 0.9491 4.817 1.5445 7.535 2.029-2.718-0.4845-5.219-1.0805-7.535-2.029z"/>
    <rect x="-15331" y="3088.2" width="309.13" height="221.75"/>
   </g>
  </g>
 </g>
</svg>
